<svg width="393" height="114" viewBox="0 0 393 114" fill="none" xmlns="http://www.w3.org/2000/svg">
<g style="mix-blend-mode:luminosity" clip-path="url(#clip0_21423_19988)">
<path d="M-0.833775 61.8468V52.4156C-0.833775 52.3016 -0.784908 52.2038 -0.703465 52.1224C-0.605732 52.041 -0.491711 51.9921 -0.361401 52.0084H2.29366C3.07552 51.9758 3.85738 52.2364 4.46007 52.7414C4.99759 53.23 5.2745 53.9956 5.2745 55.0381V55.1684C5.2745 56.2109 4.99759 56.9927 4.44378 57.4814C3.8248 57.9863 3.04295 58.2633 2.2448 58.2144H0.355305V61.8468C0.355305 61.9771 0.290154 62.0911 0.176132 62.1563C-0.0844879 62.3029 -0.393974 62.3029 -0.654594 62.1563C-0.768616 62.0911 -0.833775 61.9771 -0.833775 61.8468ZM0.339016 57.2371H2.2448C2.74975 57.2696 3.2547 57.0905 3.61305 56.7321C3.9714 56.3249 4.15058 55.7874 4.10171 55.2335V55.0707C4.15058 54.5331 3.9714 53.9956 3.61305 53.5721C3.23841 53.23 2.74975 53.0509 2.2448 53.0834H0.355305L0.339016 57.2371Z" fill="#FF6C37"/>
<path d="M9.37928 59.2895V55.0707C9.37928 54.0119 9.65619 53.2464 10.1937 52.7577C11.4968 51.7804 13.2886 51.7804 14.5917 52.7577C15.1455 53.2464 15.4224 54.0282 15.4224 55.0707V59.2895C15.4224 60.3482 15.1455 61.1138 14.5917 61.6025C13.2886 62.5961 11.4968 62.5961 10.1937 61.6025C9.65619 61.1138 9.37928 60.3482 9.37928 59.2895ZM10.5684 59.2895C10.5684 60.6089 11.171 61.2767 12.409 61.2767C12.9139 61.3093 13.4026 61.1301 13.7772 60.788C14.1356 60.3808 14.2985 59.8433 14.2659 59.2895V55.0544C14.3148 54.5169 14.1356 53.9794 13.7772 53.5558C13.4026 53.2138 12.9139 53.0346 12.409 53.0672C11.1873 53.0672 10.5846 53.7187 10.5846 55.0544L10.5684 59.2895Z" fill="#FF6C37"/>
<path d="M19.5923 60.8206C19.5923 60.6577 19.6575 60.5111 19.7552 60.3808C19.8367 60.2668 19.9507 60.1853 20.0973 60.169C20.2276 60.1853 20.3416 60.2505 20.4231 60.3482C20.5534 60.4622 20.6837 60.5925 20.8303 60.7391C21.0257 60.9183 21.2538 61.0486 21.4981 61.1301C21.8239 61.2604 22.1822 61.3092 22.5243 61.3092C23.0455 61.3418 23.5505 61.1789 23.9577 60.8695C24.3161 60.5437 24.5115 60.055 24.4789 59.5664C24.4952 59.094 24.3324 58.6542 24.0066 58.3121C23.6808 57.9863 23.2899 57.742 22.8501 57.5791C22.394 57.4162 21.9542 57.2371 21.4818 57.0416C21.0257 56.8461 20.6348 56.5529 20.3253 56.162C19.9995 55.7222 19.8204 55.1847 19.8529 54.6309C19.8367 54.1911 19.9344 53.7513 20.1299 53.3441C20.2927 53.002 20.5534 52.7251 20.8791 52.5296C21.1886 52.3504 21.5144 52.2201 21.8565 52.1224C22.2148 52.041 22.5732 51.9921 22.9315 51.9921C23.5016 51.9921 24.0554 52.0735 24.593 52.2364C25.1142 52.4156 25.3911 52.6436 25.3911 52.9205C25.3911 53.0671 25.3423 53.2137 25.2445 53.3441C25.1794 53.4744 25.0328 53.5721 24.8862 53.5721C24.6744 53.5069 24.4627 53.4255 24.2509 53.3278C23.8437 53.1486 23.4039 53.0509 22.9478 53.0671C22.4754 53.0509 21.9868 53.1649 21.5796 53.4092C21.2212 53.6535 21.0257 54.077 21.0583 54.5168C21.042 54.9241 21.2049 55.315 21.5144 55.5756C21.8565 55.8525 22.2474 56.0806 22.6709 56.2109C23.127 56.3738 23.5831 56.5529 24.0392 56.7647C24.4952 56.9927 24.8862 57.3348 25.1794 57.7583C25.5051 58.2795 25.668 58.8822 25.6517 59.5012C25.6517 60.4622 25.3748 61.1952 24.8047 61.6839C24.1857 62.2051 23.3876 62.4657 22.5732 62.4169C21.8402 62.4332 21.1072 62.254 20.4719 61.8956C19.8855 61.5047 19.5923 61.1626 19.5923 60.8206Z" fill="#FF6C37"/>
<path d="M29.1538 52.5295C29.1538 52.3992 29.1864 52.2689 29.2678 52.1712C29.333 52.0571 29.447 52.0083 29.5773 52.0083H35.2784C35.4087 52.0083 35.5227 52.0571 35.5878 52.1712C35.6693 52.2689 35.7019 52.3992 35.7019 52.5295C35.7019 52.6598 35.6693 52.8064 35.5878 52.9204C35.5227 53.0345 35.4087 53.0833 35.2784 53.0833H33.0468V61.8467C33.0468 61.977 32.9816 62.091 32.8676 62.1561C32.607 62.3027 32.2975 62.3027 32.0369 62.1561C31.9229 62.091 31.8577 61.977 31.8577 61.8467V53.0833H29.5936C29.4633 53.0833 29.3493 53.0345 29.2841 52.9204C29.2027 52.8064 29.1538 52.6761 29.1538 52.5295Z" fill="#FF6C37"/>
<path d="M39.709 61.8468V52.6111C39.6601 52.3342 39.8556 52.0736 40.1325 52.0247C40.1976 52.0084 40.2628 52.0084 40.3116 52.0247C40.6863 52.0247 40.9958 52.2691 41.2564 52.774L43.4554 56.9928L45.6706 52.774C45.9475 52.2853 46.257 52.0247 46.6154 52.0247C46.8923 51.9759 47.1529 52.1713 47.2018 52.4482C47.2181 52.4971 47.2181 52.546 47.2018 52.5948V61.8305C47.2018 61.9608 47.1366 62.0749 47.0226 62.14C46.762 62.2866 46.4525 62.2866 46.1919 62.14C46.0779 62.0749 46.0127 61.9608 46.0127 61.8305V54.4843L43.8952 58.4588C43.83 58.6542 43.6508 58.8008 43.4391 58.8008C43.2436 58.7845 43.0644 58.6542 42.9993 58.4588L40.8818 54.4029V61.8305C40.8818 61.9608 40.8166 62.0749 40.7026 62.14C40.5886 62.2215 40.442 62.2703 40.3116 62.2703C40.165 62.2703 40.0184 62.2378 39.9044 62.1563C39.7741 62.1074 39.6927 61.9771 39.709 61.8468Z" fill="#FF6C37"/>
<path d="M51.225 61.7817C51.225 61.7491 51.2413 61.7002 51.2575 61.6676L54.1244 52.4319C54.2058 52.155 54.4501 52.0247 54.8411 52.0247C55.232 52.0247 55.4763 52.155 55.5578 52.4319L58.4409 61.7165V61.7979C58.4409 61.9445 58.3431 62.0749 58.2128 62.14C58.0662 62.2377 57.8871 62.2866 57.6916 62.2703C57.5124 62.2866 57.3332 62.1889 57.2681 62.0097L56.6491 59.9573H52.9679L52.3489 62.0097C52.3 62.1889 52.1046 62.3029 51.9254 62.2866C51.7625 62.2866 51.5996 62.2377 51.453 62.14C51.3064 62.0749 51.225 61.9445 51.225 61.7817ZM53.2611 58.98H56.4048L54.8411 53.735L53.2611 58.98Z" fill="#FF6C37"/>
<path d="M62.4967 61.8467V52.4155C62.4967 52.1386 62.6922 52.0083 63.0831 52.0083C63.2623 52.0083 63.4415 52.0734 63.5881 52.1874C63.751 52.3503 63.8976 52.5458 63.979 52.7575L67.4811 59.5988V52.4155C67.4811 52.2852 67.5462 52.1712 67.6603 52.1223C67.9209 51.9757 68.2304 51.9757 68.491 52.1223C68.605 52.1874 68.6702 52.3015 68.6702 52.4155V61.8467C68.6702 61.977 68.605 62.091 68.491 62.1561C68.3607 62.2376 68.2304 62.2702 68.0838 62.2702C67.758 62.2539 67.4648 62.0421 67.3508 61.7326L63.6695 54.6796V61.8467C63.6695 61.977 63.6044 62.091 63.5066 62.1561C63.246 62.3027 62.9365 62.3027 62.6759 62.1561C62.5619 62.091 62.4967 61.977 62.4967 61.8467Z" fill="#FF6C37"/>
<path d="M-6.25791 59.2568C-5.1177 50.3306 -11.4214 42.1699 -20.3314 41.0297C-29.2413 39.8895 -37.4346 46.1933 -38.5748 55.1032C-39.715 64.0131 -33.4112 72.1901 -24.5013 73.3466C-15.5751 74.4868 -7.41441 68.1831 -6.25791 59.2568Z" fill="#FF6C37"/>
</g>
<g style="mix-blend-mode:luminosity" clip-path="url(#clip1_21423_19988)">
<path d="M169.795 60.507V55.4727C169.795 55.3414 169.707 55.2539 169.575 55.2539H167.901V53.2839H169.575C169.707 53.2839 169.795 53.1963 169.795 53.065V49.9132H172.174V53.065C172.174 53.1963 172.262 53.2839 172.394 53.2839H174.729V55.2539H172.394C172.262 55.2539 172.174 55.3414 172.174 55.4727V59.9379C172.174 62.0392 172.923 62.2143 173.892 62.2143C174.245 62.2143 174.773 62.1705 175.082 62.1267V64.1842C174.685 64.2279 174.024 64.3155 173.275 64.3155C172.35 64.2717 169.795 64.2717 169.795 60.507ZM234.468 61.7327L236.406 60.7258C236.847 61.7327 237.684 62.3894 238.653 62.3894C239.402 62.3894 240.239 62.0829 240.239 61.1636C240.239 60.5508 239.842 60.2005 238.917 59.8941L237.596 59.4564C235.745 58.8873 234.82 57.8367 234.82 56.3482C234.82 54.4659 236.406 53.065 238.565 53.065C240.283 53.065 241.737 53.9843 242.442 55.429L240.503 56.4795C240.063 55.5602 239.358 55.035 238.521 55.035C237.684 55.035 237.111 55.4727 237.111 56.1294C237.111 56.6984 237.552 57.1363 238.433 57.3988L239.754 57.8367C241.693 58.4495 242.618 59.5001 242.618 60.9447C242.618 63.2212 240.635 64.4031 238.653 64.4031C236.67 64.3593 235.084 63.3525 234.468 61.7327ZM227.155 59.7628C227.11 59.8066 227.066 59.8504 227.066 59.8941V64.0967H224.643V48.556H227.066V57.0487C227.066 57.1363 227.11 57.2237 227.199 57.2237C227.287 57.2675 227.375 57.2237 227.419 57.1799L231.34 53.2401H234.291L229.71 57.8367C229.622 57.9242 229.622 58.0118 229.71 58.0992L234.688 64.0967H231.736L227.903 59.3688C227.859 59.325 227.815 59.2812 227.771 59.2812C227.727 59.2812 227.683 59.2812 227.639 59.325L227.155 59.7628ZM223.454 54.7285L221.912 56.1732C221.031 55.5165 220.15 55.2101 219.181 55.2101C217.154 55.2101 215.656 56.6984 215.656 58.7122C215.656 60.7258 217.154 62.2143 219.181 62.2143C220.062 62.2143 220.987 61.9078 221.956 61.2512L223.322 62.6958C221.339 64.1405 220.282 64.4031 218.916 64.4031C217.286 64.4031 215.832 63.834 214.775 62.7833C213.762 61.7765 213.189 60.2881 213.189 58.7122C213.189 55.429 215.612 53.0212 218.96 53.0212C220.062 53.0212 221.692 53.1963 223.454 54.7285ZM212.088 50.0445C212.088 50.8325 211.427 51.4891 210.634 51.4891C209.841 51.4891 209.18 50.8325 209.18 50.0445C209.18 49.2564 209.841 48.5998 210.634 48.5998C211.427 48.5998 212.088 49.2564 212.088 50.0445ZM211.868 64.0967H209.444V53.2839H211.868V64.0967ZM204.158 59.3688V64.1405H201.735V53.3277H204.114V54.6409C204.114 54.7285 204.158 54.8161 204.246 54.8598C204.334 54.9036 204.422 54.8598 204.466 54.7723C205.083 53.7654 206.228 53.1088 207.462 53.1088C207.638 53.1088 207.77 53.1088 207.858 53.1526V55.604C207.726 55.5602 207.506 55.5602 207.286 55.5602C205.347 55.5165 204.158 57.0049 204.158 59.3688ZM191.162 58.7122C191.162 56.7422 192.66 55.2101 194.598 55.2101C196.536 55.2101 198.034 56.7422 198.034 58.7122C198.034 60.6821 196.536 62.2143 194.598 62.2143C192.66 62.2143 191.162 60.6821 191.162 58.7122ZM191.382 62.8271C191.426 62.8271 191.426 62.8271 191.47 62.8271C191.514 62.8271 191.602 62.8709 191.646 62.9147C192.483 63.8778 193.717 64.4031 195.127 64.4031C198.122 64.4031 200.413 61.9078 200.413 58.7122C200.413 57.1363 199.885 55.7354 198.871 54.6409C197.902 53.5904 196.536 53.0212 195.083 53.0212C193.717 53.0212 192.439 53.5904 191.602 54.5971C191.558 54.6409 191.47 54.6847 191.382 54.6409C191.294 54.5971 191.25 54.5535 191.25 54.4659V48.5998H188.827V64.1405H191.25V63.046C191.25 62.9147 191.294 62.8709 191.382 62.8271ZM181.337 62.2143C179.443 62.2143 177.901 60.6821 177.901 58.7122C177.901 56.7422 179.399 55.2101 181.337 55.2101C183.276 55.2101 184.774 56.7422 184.774 58.7122C184.774 60.6821 183.232 62.2143 181.337 62.2143ZM187.021 64.0967V53.2839H184.642V54.3783C184.642 54.4659 184.598 54.5535 184.509 54.5535C184.421 54.5971 184.333 54.5534 184.289 54.5097C183.496 53.5466 182.263 53.0212 180.809 53.0212C177.813 53.0212 175.522 55.5165 175.522 58.7122C175.522 61.9078 177.857 64.4031 180.809 64.4031C182.174 64.4031 183.452 63.834 184.289 62.8271C184.333 62.7396 184.421 62.7396 184.509 62.7833C184.598 62.8271 184.642 62.8709 184.642 62.9585V64.1405H187.021V64.0967ZM160.94 62.2143C159.046 62.2143 157.504 60.6821 157.504 58.7122C157.504 56.7422 159.002 55.2101 160.94 55.2101C162.834 55.2101 164.376 56.7422 164.376 58.7122C164.376 60.6821 162.834 62.2143 160.94 62.2143ZM166.623 64.0967V53.2839H164.244V54.3783C164.244 54.4659 164.2 54.5535 164.112 54.5535C164.024 54.5971 163.936 54.5534 163.892 54.5097C163.099 53.5466 161.865 53.0212 160.411 53.0212C157.416 53.0212 155.125 55.5165 155.125 58.7122C155.125 61.9078 157.46 64.4031 160.411 64.4031C161.777 64.4031 163.055 63.834 163.892 62.8271C163.936 62.7396 164.024 62.7396 164.112 62.7833C164.2 62.8271 164.244 62.8709 164.244 62.9585V64.1405H166.623V64.0967ZM148.076 62.2143C146.138 62.2143 144.64 60.6821 144.64 58.7122C144.64 56.7422 146.138 55.2101 148.076 55.2101C149.97 55.2101 151.512 56.7422 151.512 58.7122C151.512 60.6821 149.97 62.2143 148.076 62.2143ZM153.759 64.0967V48.5998H151.336V54.4221C151.336 54.5097 151.292 54.5971 151.204 54.5971C151.116 54.6409 151.028 54.5971 150.984 54.5535C150.147 53.5904 148.913 53.065 147.503 53.065C144.508 53.065 142.217 55.5602 142.217 58.756C142.217 60.3319 142.745 61.7327 143.759 62.8271C144.728 63.8778 146.094 64.4468 147.547 64.4468C148.913 64.4468 150.191 63.8778 151.028 62.8709C151.072 62.8271 151.16 62.7833 151.248 62.8271C151.336 62.8709 151.38 62.9147 151.38 63.0023V64.1405H153.759V64.0967Z" fill="#707070"/>
<path d="M136.083 54.7065L127.037 59.8372L117.414 54.3706L116.959 54.6149V58.5851L127.037 64.3267L136.083 59.1959V61.3032L127.037 66.4339L117.414 60.9672L116.959 61.2116V61.8835L127.037 67.625L137.146 61.8835V57.9132L136.691 57.6689L127.037 63.1356L118.021 58.0048V55.9281L127.037 61.0283L137.146 55.2868V51.3776L136.63 51.1028L127.037 56.5389L118.507 51.683L127.037 46.8577L134.08 50.8279L134.717 50.492V50.0033L127.037 45.6666L116.959 51.3776V51.9884L127.037 57.73L136.083 52.5992V54.7065Z" fill="#FF3621"/>
</g>
<g style="mix-blend-mode:luminosity" clip-path="url(#clip2_21423_19988)">
<path d="M338.888 49.9522C338.888 50.9732 338.065 51.7957 337.044 51.7957C336.023 51.7957 335.201 50.9732 335.201 49.9522C335.201 48.9311 335.995 48.1086 337.044 48.1086C338.093 48.137 338.888 48.9595 338.888 49.9522ZM331.287 53.6675C331.287 53.8377 331.287 54.1213 331.287 54.1213C331.287 54.1213 330.407 52.9869 328.536 52.9869C325.444 52.9869 323.033 55.3409 323.033 58.6025C323.033 61.8357 325.416 64.2181 328.536 64.2181C330.436 64.2181 331.287 63.0553 331.287 63.0553V63.5374C331.287 63.7643 331.457 63.9345 331.684 63.9345H333.981V53.2705C333.981 53.2705 331.882 53.2705 331.684 53.2705C331.457 53.2705 331.287 53.469 331.287 53.6675ZM331.287 60.5027C330.861 61.1267 330.01 61.6655 328.989 61.6655C327.174 61.6655 325.784 60.5311 325.784 58.6025C325.784 56.6739 327.174 55.5394 328.989 55.5394C329.982 55.5394 330.89 56.1066 331.287 56.7022V60.5027ZM335.683 53.2705H338.405V63.9345H335.683V53.2705ZM376.353 52.9869C374.482 52.9869 373.602 54.1213 373.602 54.1213V48.137H370.88V63.9345C370.88 63.9345 372.978 63.9345 373.177 63.9345C373.404 63.9345 373.574 63.7359 373.574 63.5374V63.0553C373.574 63.0553 374.453 64.2181 376.325 64.2181C379.416 64.2181 381.827 61.8357 381.827 58.6025C381.827 55.3692 379.416 52.9869 376.353 52.9869ZM375.9 61.6372C374.85 61.6372 374.028 61.0983 373.602 60.4743V56.6739C374.028 56.1066 374.935 55.5111 375.9 55.5111C377.715 55.5111 379.104 56.6455 379.104 58.5741C379.104 60.5027 377.715 61.6372 375.9 61.6372ZM369.461 57.6098V63.9628H366.739V57.9218C366.739 56.1634 366.172 55.4543 364.64 55.4543C363.818 55.4543 362.967 55.8798 362.428 56.5037V63.9345H359.705V53.2705H361.861C362.087 53.2705 362.258 53.469 362.258 53.6675V54.1213C363.052 53.2988 364.101 52.9869 365.151 52.9869C366.342 52.9869 367.334 53.3272 368.128 54.0079C369.093 54.802 369.461 55.823 369.461 57.6098ZM353.097 52.9869C351.225 52.9869 350.346 54.1213 350.346 54.1213V48.137H347.623V63.9345C347.623 63.9345 349.722 63.9345 349.92 63.9345C350.147 63.9345 350.317 63.7359 350.317 63.5374V63.0553C350.317 63.0553 351.197 64.2181 353.068 64.2181C356.16 64.2181 358.571 61.8357 358.571 58.6025C358.599 55.3692 356.188 52.9869 353.097 52.9869ZM352.643 61.6372C351.594 61.6372 350.771 61.0983 350.346 60.4743V56.6739C350.771 56.1066 351.679 55.5111 352.643 55.5111C354.458 55.5111 355.848 56.6455 355.848 58.5741C355.848 60.5027 354.458 61.6372 352.643 61.6372ZM345.269 52.9869C346.091 52.9869 346.517 53.1287 346.517 53.1287V55.6529C346.517 55.6529 344.248 54.8871 342.83 56.5037V63.9628H340.107V53.2705C340.107 53.2705 342.206 53.2705 342.404 53.2705C342.631 53.2705 342.802 53.469 342.802 53.6675V54.1213C343.312 53.5257 344.418 52.9869 345.269 52.9869ZM316.992 62.9702C316.851 62.6298 316.709 62.2611 316.567 61.9492C316.34 61.4386 316.113 60.9565 315.915 60.5027L315.886 60.4743C313.929 56.2201 311.831 51.9091 309.618 47.6549L309.533 47.4847C309.306 47.0593 309.079 46.6055 308.853 46.1517C308.569 45.6412 308.285 45.1023 307.832 44.5918C306.924 43.4573 305.619 42.8334 304.23 42.8334C302.812 42.8334 301.535 43.4573 300.599 44.5351C300.174 45.0456 299.862 45.5845 299.578 46.095C299.351 46.5488 299.125 47.0025 298.898 47.428L298.813 47.5981C296.629 51.8524 294.502 56.1634 292.545 60.4176L292.516 60.4743C292.318 60.9281 292.091 61.4103 291.864 61.9208C291.722 62.2328 291.58 62.5731 291.438 62.9418C291.07 63.9912 290.956 64.9839 291.098 66.0049C291.41 68.132 292.828 69.9188 294.785 70.7129C295.523 71.0249 296.288 71.1667 297.082 71.1667C297.309 71.1667 297.593 71.1383 297.82 71.11C298.756 70.9965 299.72 70.6846 300.656 70.1457C301.819 69.4934 302.925 68.5574 304.173 67.1961C305.421 68.5574 306.555 69.4934 307.69 70.1457C308.626 70.6846 309.59 70.9965 310.526 71.11C310.753 71.1383 311.036 71.1667 311.263 71.1667C312.057 71.1667 312.852 71.0249 313.561 70.7129C315.546 69.9188 316.936 68.1036 317.248 66.0049C317.475 65.0122 317.361 64.0196 316.992 62.9702ZM304.201 64.445C302.67 62.5164 301.677 60.7012 301.337 59.1697C301.195 58.5174 301.167 57.9502 301.252 57.4396C301.308 56.9859 301.479 56.5888 301.705 56.2485C302.244 55.4827 303.152 55.0005 304.201 55.0005C305.251 55.0005 306.187 55.4543 306.697 56.2485C306.924 56.5888 307.094 56.9859 307.151 57.4396C307.236 57.9502 307.208 58.5458 307.066 59.1697C306.725 60.6729 305.733 62.488 304.201 64.445ZM315.518 65.778C315.319 67.2528 314.326 68.5291 312.937 69.0963C312.256 69.3799 311.519 69.465 310.781 69.3799C310.072 69.2948 309.363 69.0679 308.626 68.6425C307.605 68.0753 306.584 67.1961 305.392 65.8914C307.264 63.5941 308.399 61.4954 308.824 59.6235C309.023 58.7443 309.051 57.9502 308.966 57.2128C308.853 56.5037 308.597 55.8514 308.2 55.2842C307.321 54.0079 305.846 53.2705 304.201 53.2705C302.556 53.2705 301.081 54.0362 300.202 55.2842C299.805 55.8514 299.55 56.5037 299.436 57.2128C299.323 57.9502 299.351 58.7726 299.578 59.6235C300.004 61.4954 301.167 63.6225 303.01 65.9198C301.847 67.2244 300.798 68.1036 299.777 68.6709C299.039 69.0963 298.33 69.3232 297.621 69.4083C296.856 69.4934 296.118 69.3799 295.466 69.1247C294.076 68.5574 293.083 67.2812 292.885 65.8063C292.8 65.0973 292.857 64.3883 293.14 63.5941C293.225 63.3105 293.367 63.0269 293.509 62.6866C293.707 62.2328 293.934 61.7506 294.161 61.2685L294.19 61.2118C296.147 56.9859 298.245 52.6749 300.429 48.4774L300.514 48.3072C300.741 47.8818 300.968 47.428 301.195 47.0025C301.422 46.5488 301.677 46.1233 301.989 45.7546C302.585 45.0739 303.379 44.7052 304.258 44.7052C305.137 44.7052 305.931 45.0739 306.527 45.7546C306.839 46.1233 307.094 46.5488 307.321 47.0025C307.548 47.428 307.775 47.8818 308.002 48.3072L308.087 48.4774C310.242 52.7032 312.341 57.0142 314.298 61.2401V61.2685C314.525 61.7223 314.723 62.2328 314.95 62.6866C315.092 63.0269 315.234 63.3105 315.319 63.5941C315.546 64.3315 315.631 65.0406 315.518 65.778Z" fill="#FF5A5F"/>
</g>
<path d="M42.5498 8L-3.00016 8L-2.33764 106H43.2123L42.5498 8Z" fill="url(#paint0_linear_21423_19988)"/>
<path d="M347.662 106H393.212L392.55 8H347L347.662 106Z" fill="url(#paint1_linear_21423_19988)"/>
<defs>
<linearGradient id="paint0_linear_21423_19988" x1="13.7464" y1="70.8397" x2="38.4027" y2="70.7841" gradientUnits="userSpaceOnUse">
<stop/>
<stop offset="1" stop-opacity="0"/>
</linearGradient>
<linearGradient id="paint1_linear_21423_19988" x1="376.465" y1="43.1603" x2="351.809" y2="43.2159" gradientUnits="userSpaceOnUse">
<stop/>
<stop offset="1" stop-opacity="0"/>
</linearGradient>
<clipPath id="clip0_21423_19988">
<rect width="107.667" height="34" fill="white" transform="translate(-38.708 40)"/>
</clipPath>
<clipPath id="clip1_21423_19988">
<rect width="126.083" height="34" fill="white" transform="translate(116.959 40)"/>
</clipPath>
<clipPath id="clip2_21423_19988">
<rect width="90.6667" height="34" fill="white" transform="translate(291.042 40)"/>
</clipPath>
</defs>
</svg>
