<svg width="1604" height="200" viewBox="0 0 1604 200" fill="none" xmlns="http://www.w3.org/2000/svg">
<g style="mix-blend-mode:luminosity">
<path d="M14.635 82H0V117L14.635 82Z" fill="#FA0C00"/>
<path d="M24.9316 82H39.5476V117L24.9316 82Z" fill="#FA0C00"/>
<path d="M19.7842 94.8999L29.0991 117H22.9876L20.2037 109.964H13.3867L19.7842 94.8999Z" fill="#FA0C00"/>
<path d="M63.4236 104.258L65.1493 109.206C65.2065 109.33 65.2923 109.387 65.4448 109.387H68.7627C68.9439 109.387 68.9725 109.301 68.9439 109.12L62.0888 90.0804C62.0602 89.9279 62.0316 89.8993 61.879 89.8993H57.7603C57.6459 89.8993 57.5791 89.9851 57.5791 90.109C57.5219 91.1101 57.4361 91.4152 57.3122 91.7108L51.2007 109.092C51.1721 109.301 51.2389 109.387 51.4105 109.387H54.3756C54.5568 109.387 54.6426 109.33 54.7093 109.149L56.3397 104.258H63.4236ZM57.2836 101.026C58.1798 98.318 59.362 94.8475 59.8387 92.8644H59.8673C60.4584 94.9429 61.8504 99.0616 62.4797 101.026H57.2836Z" fill="#FA0C00"/>
<path d="M77.7572 109.683C79.5401 109.683 81.4374 109.359 83.3633 108.529C83.5158 108.472 83.5444 108.405 83.5444 108.262C83.4872 107.728 83.4205 106.956 83.4205 106.365V88.4407C83.4205 88.3262 83.4205 88.269 83.2775 88.269H80.0454C79.9215 88.269 79.8643 88.3262 79.8643 88.4788V94.5521C79.3589 94.4949 79.0062 94.4663 78.5867 94.4663C73.3715 94.4663 70.168 97.9081 70.168 102.208C70.168 107.194 73.4573 109.683 77.7572 109.683ZM79.8642 106.365C79.3303 106.537 78.7392 106.603 78.1386 106.603C75.7741 106.603 73.8386 105.268 73.8386 102.027C73.8386 99.1571 75.8313 97.46 78.4723 97.46C79.0062 97.46 79.4733 97.5172 79.8642 97.6698V106.365Z" fill="#FA0C00"/>
<path d="M93.8553 94.4663C89.4028 94.4663 86.6475 97.8795 86.6475 102.094C86.6475 105.86 88.8403 109.683 93.7886 109.683C97.9741 109.683 100.911 106.603 100.911 101.998C100.911 97.9368 98.4222 94.4663 93.8553 94.4663ZM93.6742 97.46C96.1912 97.46 97.259 99.6243 97.259 102.094C97.259 105.145 95.6859 106.661 93.8553 106.661C91.5957 106.661 90.2609 104.763 90.2609 102.027C90.2609 99.2143 91.6815 97.46 93.6742 97.46Z" fill="#FA0C00"/>
<path d="M104.252 88.2689C104.128 88.2689 104.042 88.3261 104.042 88.4787V108.767C104.042 108.853 104.128 109.006 104.252 109.034C105.672 109.473 107.16 109.683 108.695 109.683C113.09 109.683 117.361 106.956 117.361 101.464C117.361 97.4885 114.634 94.4661 110.363 94.4661C109.381 94.4661 108.466 94.6187 107.665 94.8856L107.627 88.5073C107.627 88.2975 107.57 88.2689 107.36 88.2689H104.252ZM113.71 101.827C113.71 105.116 111.46 106.66 109.028 106.66C108.523 106.66 108.075 106.632 107.665 106.508V97.8508C108.132 97.6696 108.695 97.5171 109.734 97.5171C112.079 97.5171 113.71 99.0044 113.71 101.827Z" fill="#FA0C00"/>
<path d="M129.423 102.894C130.872 102.894 132.064 102.866 132.474 102.77C132.627 102.742 132.684 102.685 132.713 102.561C132.798 102.237 132.836 101.56 132.836 100.73C132.836 97.908 131.139 94.4662 126.754 94.4662C122.273 94.4662 119.784 98.1178 119.784 102.237C119.784 105.888 121.71 109.683 127.106 109.683C129.128 109.683 130.434 109.359 131.559 108.825C131.673 108.767 131.73 108.672 131.73 108.501V106.031C131.73 105.888 131.645 105.86 131.559 105.917C130.434 106.393 129.213 106.632 127.879 106.632C124.856 106.632 123.483 104.963 123.398 102.894H129.423ZM123.398 100.339C123.636 98.8901 124.551 97.3169 126.601 97.3169C128.861 97.3169 129.452 99.2142 129.452 100.072C129.452 100.101 129.452 100.225 129.452 100.311C129.328 100.339 128.947 100.339 127.821 100.339H123.398Z" fill="#FA0C00"/>
</g>
<g style="mix-blend-mode:luminosity" clip-path="url(#clip0_21428_8642)">
<path d="M212.29 107.083C209.107 107.083 207 104.672 206.412 103.738C207.166 97.8285 209.373 95.9601 212.29 95.9601C215.174 95.9601 217.415 98.2195 217.415 101.522C217.415 104.824 215.174 107.083 212.29 107.083ZM212.29 92.332C207.099 92.332 204.193 95.6451 203.361 99.0559C202.419 97.3179 201.72 94.9934 201.176 92.8317H194V101.576C194 104.748 192.525 107.094 189.641 107.094C186.757 107.094 185.104 104.748 185.104 101.576L185.137 92.8317H181V101.576C181 104.129 181.843 106.442 183.385 108.094C184.971 109.799 187.134 110.69 189.641 110.69C194.632 110.69 198.115 106.942 198.115 101.576V95.6994C198.636 97.6329 199.879 101.348 202.252 104.607L200.034 116.979H204.238L205.702 108.213C206.179 108.604 206.689 108.952 207.232 109.267C208.641 110.136 210.249 110.625 211.913 110.679C211.913 110.679 212.168 110.69 212.302 110.69C217.448 110.69 221.541 106.79 221.541 101.522C221.541 96.2534 217.437 92.332 212.29 92.332Z" fill="#14A800"/>
<path d="M271.731 94.7014V92.8331H267.672V110.137H271.787V103.359C271.787 99.1877 272.175 96.1896 277.888 96.5807V92.6267C275.225 92.4312 273.151 92.9743 271.731 94.7014Z" fill="#14A800"/>
<path d="M243.16 92.834L240.176 104.935L236.993 92.834H231.758L228.563 104.935L225.591 92.834H221.42L225.99 110.149H230.937L234.375 97.8525L237.781 110.149H242.728L247.564 92.834H243.16Z" fill="#14A800"/>
<path d="M256.626 107.094C253.698 107.094 251.502 104.835 251.502 101.522C251.502 98.2086 253.709 95.9601 256.626 95.9601C259.51 95.9601 261.751 98.2195 261.751 101.522C261.751 104.824 259.51 107.094 256.626 107.094ZM256.626 92.332C251.446 92.332 247.387 96.2643 247.387 101.522C247.387 106.779 251.446 110.679 256.626 110.679C261.773 110.679 265.866 106.779 265.866 101.522C265.866 96.2643 261.784 92.332 256.626 92.332Z" fill="#14A800"/>
<path d="M283.79 101.631H284.744L290.49 110.147H295.137L288.527 100.708C291.732 99.4804 293.884 96.2759 293.884 92.8325H289.78C289.78 96.5692 286.774 97.9813 283.79 97.9813V86H279.664V110.147H283.779L283.79 101.631Z" fill="#14A800"/>
</g>
<g style="mix-blend-mode:luminosity">
<path fill-rule="evenodd" clip-rule="evenodd" d="M422.707 96.5972C423.081 97.2429 423.204 97.9774 423.244 98.8032L423.297 99.9039V107.601L423.352 108.703C423.46 110.502 424.787 111.833 426.601 111.946L427.697 112V99.9039L427.751 98.8032C427.796 97.9867 427.917 97.2382 428.297 96.588C428.685 95.921 429.24 95.3677 429.909 94.9835C430.578 94.5993 431.336 94.3978 432.107 94.3992C432.878 94.4006 433.635 94.6049 434.303 94.9915C434.97 95.3781 435.524 95.9335 435.909 96.6018C436.283 97.2475 436.4 97.9959 436.445 98.8032L436.499 99.9005V107.601L436.553 108.703C436.666 110.511 437.983 111.842 439.802 111.946L440.898 112V98.8032C440.898 96.4697 439.971 94.2317 438.322 92.5813C436.672 90.9309 434.434 90.0032 432.101 90.0023C430.852 90.001 429.617 90.2662 428.479 90.7803C427.34 91.2944 426.325 92.0454 425.5 92.9833C424.675 92.0458 423.659 91.2949 422.521 90.7807C421.383 90.2665 420.148 90.0007 418.899 90.0012C417.072 90.0012 415.377 90.5555 413.972 91.513C413.115 90.5567 411.198 90.0012 410.097 90.0012V112L411.198 111.946C413.039 111.824 414.369 110.53 414.441 108.703L414.5 107.601V99.9039L414.554 98.8032C414.6 97.9728 414.716 97.2429 415.091 96.5926C415.479 95.9261 416.034 95.3728 416.703 94.9882C417.371 94.6035 418.128 94.4009 418.899 94.4005C419.671 94.4006 420.429 94.6037 421.097 94.9893C421.766 95.3748 422.321 95.9294 422.707 96.5972ZM347.399 111.947L348.5 112H364.999L364.945 110.903C364.796 109.094 363.515 107.773 361.7 107.655L360.6 107.601H350.701L363.898 94.3993L363.844 93.3032C363.758 91.4761 362.423 90.1559 360.6 90.0554L359.499 90.0058L343 90.0012L343.054 91.1019C343.199 92.8932 344.498 94.2422 346.297 94.3462L347.399 94.4005H357.297L344.101 107.602L344.155 108.703C344.264 110.516 345.572 111.829 347.399 111.946V111.947ZM405.779 93.2212C406.8 94.2426 407.611 95.4552 408.164 96.7898C408.717 98.1244 409.001 99.5548 409.001 100.999C409.001 102.444 408.717 103.874 408.164 105.209C407.611 106.544 406.8 107.756 405.779 108.778C403.715 110.84 400.917 111.998 397.999 111.998C395.081 111.998 392.283 110.84 390.219 108.778C385.924 104.482 385.924 97.5166 390.219 93.2212C391.24 92.2002 392.451 91.3902 393.785 90.8375C395.119 90.2848 396.548 90.0002 397.992 90C399.438 89.999 400.87 90.2831 402.206 90.836C403.542 91.3889 404.756 92.1999 405.779 93.2224V93.2212ZM402.666 96.3362C403.903 97.5744 404.598 99.2531 404.598 101.003C404.598 102.754 403.903 104.433 402.666 105.671C401.428 106.908 399.749 107.603 397.999 107.603C396.248 107.603 394.57 106.908 393.332 105.671C392.094 104.433 391.399 102.754 391.399 101.003C391.399 99.2531 392.094 97.5744 393.332 96.3362C394.57 95.099 396.248 94.404 397.999 94.404C399.749 94.404 401.428 95.099 402.666 96.3362ZM374.906 90C376.35 90.0004 377.78 90.2851 379.113 90.8381C380.447 91.391 381.659 92.2012 382.679 93.2224C386.976 97.5166 386.976 104.483 382.679 108.778C380.615 110.84 377.817 111.998 374.899 111.998C371.982 111.998 369.183 110.84 367.119 108.778C362.824 104.482 362.824 97.5166 367.119 93.2212C368.14 92.2002 369.352 91.3902 370.685 90.8375C372.019 90.2848 373.449 90.0002 374.892 90H374.906ZM379.567 96.3339C380.804 97.5721 381.499 99.2511 381.499 101.002C381.499 102.752 380.804 104.431 379.567 105.67C378.328 106.907 376.65 107.602 374.899 107.602C373.149 107.602 371.47 106.907 370.232 105.67C368.995 104.431 368.3 102.753 368.3 101.002C368.3 99.252 368.995 97.5732 370.232 96.335C371.47 95.0978 373.149 94.4028 374.899 94.4028C376.65 94.4028 378.328 95.0978 379.567 96.335V96.3339Z" fill="#2D8CFF"/>
</g>
<g style="mix-blend-mode:luminosity">
<path d="M542.47 106.843V93.5279C542.47 93.3669 542.538 93.229 542.653 93.114C542.791 92.999 542.952 92.93 543.136 92.953H546.885C547.989 92.907 549.092 93.2749 549.943 93.9878C550.702 94.6777 551.093 95.7585 551.093 97.2302V97.4142C551.093 98.8859 550.702 99.9897 549.92 100.68C549.046 101.392 547.943 101.783 546.816 101.714H544.148V106.843C544.148 107.026 544.056 107.187 543.895 107.279C543.527 107.486 543.09 107.486 542.722 107.279C542.561 107.187 542.47 107.026 542.47 106.843ZM544.125 100.335H546.816C547.529 100.381 548.241 100.128 548.747 99.6218C549.253 99.0469 549.506 98.288 549.437 97.5062V97.2762C549.506 96.5174 549.253 95.7585 548.747 95.1606C548.218 94.6777 547.529 94.4247 546.816 94.4707H544.148L544.125 100.335Z" fill="#FF6C37"/>
<path d="M556.888 103.232V97.2763C556.888 95.7815 557.279 94.7007 558.038 94.0109C559.877 92.6311 562.407 92.6311 564.247 94.0109C565.028 94.7007 565.419 95.8045 565.419 97.2763V103.232C565.419 104.727 565.028 105.808 564.247 106.498C562.407 107.9 559.877 107.9 558.038 106.498C557.279 105.808 556.888 104.727 556.888 103.232ZM558.567 103.232C558.567 105.095 559.417 106.038 561.165 106.038C561.878 106.084 562.568 105.831 563.097 105.348C563.603 104.773 563.833 104.014 563.787 103.232V97.2533C563.856 96.4944 563.603 95.7356 563.097 95.1377C562.568 94.6547 561.878 94.4018 561.165 94.4478C559.44 94.4478 558.59 95.3676 558.59 97.2533L558.567 103.232Z" fill="#FF6C37"/>
<path d="M571.306 105.394C571.306 105.164 571.398 104.957 571.536 104.773C571.651 104.612 571.812 104.497 572.019 104.474C572.203 104.497 572.364 104.589 572.479 104.727C572.663 104.888 572.847 105.072 573.054 105.279C573.33 105.532 573.652 105.716 573.997 105.831C574.457 106.015 574.963 106.084 575.446 106.084C576.181 106.13 576.894 105.9 577.469 105.463C577.975 105.003 578.251 104.313 578.205 103.623C578.228 102.956 577.998 102.335 577.538 101.852C577.078 101.392 576.526 101.048 575.906 100.818C575.262 100.588 574.641 100.335 573.974 100.059C573.33 99.7828 572.778 99.3688 572.341 98.8169C571.881 98.1961 571.628 97.4372 571.674 96.6553C571.651 96.0345 571.789 95.4136 572.065 94.8387C572.295 94.3558 572.663 93.9648 573.123 93.6889C573.56 93.4359 574.02 93.252 574.503 93.114C575.009 92.999 575.515 92.93 576.021 92.93C576.825 92.93 577.607 93.045 578.366 93.2749C579.102 93.5279 579.493 93.8498 579.493 94.2408C579.493 94.4477 579.424 94.6547 579.286 94.8387C579.194 95.0226 578.987 95.1606 578.78 95.1606C578.481 95.0686 578.182 94.9536 577.883 94.8157C577.308 94.5627 576.687 94.4247 576.044 94.4477C575.377 94.4247 574.687 94.5857 574.112 94.9306C573.606 95.2756 573.33 95.8735 573.376 96.4944C573.353 97.0693 573.583 97.6212 574.02 97.9891C574.503 98.38 575.055 98.702 575.653 98.8859C576.296 99.1159 576.94 99.3688 577.584 99.6678C578.228 99.9897 578.78 100.473 579.194 101.071C579.654 101.806 579.884 102.657 579.861 103.531C579.861 104.888 579.47 105.923 578.665 106.613C577.791 107.348 576.664 107.716 575.515 107.647C574.48 107.67 573.445 107.417 572.548 106.911C571.72 106.36 571.306 105.877 571.306 105.394Z" fill="#FF6C37"/>
<path d="M584.805 93.6887C584.805 93.5047 584.851 93.3208 584.966 93.1828C585.058 93.0218 585.219 92.9528 585.403 92.9528H593.451C593.635 92.9528 593.796 93.0218 593.888 93.1828C594.003 93.3208 594.049 93.5047 594.049 93.6887C594.049 93.8727 594.003 94.0796 593.888 94.2406C593.796 94.4016 593.635 94.4706 593.451 94.4706H590.301V106.842C590.301 107.026 590.209 107.187 590.048 107.279C589.68 107.486 589.243 107.486 588.875 107.279C588.714 107.187 588.622 107.026 588.622 106.842V94.4706H585.426C585.242 94.4706 585.081 94.4016 584.989 94.2406C584.874 94.0796 584.805 93.8957 584.805 93.6887Z" fill="#FF6C37"/>
<path d="M599.706 106.843V93.8039C599.637 93.413 599.913 93.0451 600.304 92.9761C600.396 92.9531 600.488 92.9531 600.557 92.9761C601.086 92.9761 601.523 93.321 601.891 94.0339L604.995 99.9898L608.123 94.0339C608.514 93.344 608.951 92.9761 609.457 92.9761C609.847 92.9071 610.215 93.183 610.284 93.574C610.307 93.643 610.307 93.7119 610.284 93.7809V106.82C610.284 107.004 610.192 107.165 610.031 107.257C609.664 107.463 609.227 107.463 608.859 107.257C608.698 107.165 608.606 107.004 608.606 106.82V96.4485L605.616 102.059C605.524 102.335 605.271 102.542 604.972 102.542C604.696 102.519 604.443 102.335 604.351 102.059L601.362 96.3335V106.82C601.362 107.004 601.27 107.165 601.109 107.257C600.948 107.371 600.741 107.44 600.557 107.44C600.35 107.44 600.143 107.394 599.982 107.28C599.798 107.211 599.683 107.027 599.706 106.843Z" fill="#FF6C37"/>
<path d="M615.964 106.751C615.964 106.705 615.987 106.636 616.01 106.59L620.057 93.5509C620.172 93.16 620.517 92.9761 621.069 92.9761C621.621 92.9761 621.966 93.16 622.081 93.5509L626.151 106.659V106.774C626.151 106.981 626.013 107.164 625.829 107.256C625.622 107.394 625.37 107.463 625.094 107.44C624.841 107.463 624.588 107.325 624.496 107.073L623.622 104.175H618.425L617.551 107.073C617.482 107.325 617.206 107.486 616.953 107.463C616.723 107.463 616.493 107.394 616.286 107.256C616.079 107.164 615.964 106.981 615.964 106.751ZM618.839 102.795H623.277L621.069 95.3906L618.839 102.795Z" fill="#FF6C37"/>
<path d="M631.877 106.842V93.5277C631.877 93.1368 632.153 92.9528 632.705 92.9528C632.958 92.9528 633.211 93.0448 633.418 93.2058C633.648 93.4358 633.855 93.7117 633.97 94.0107L638.914 103.669V93.5277C638.914 93.3438 639.006 93.1828 639.167 93.1138C639.535 92.9069 639.972 92.9069 640.34 93.1138C640.501 93.2058 640.593 93.3668 640.593 93.5277V106.842C640.593 107.026 640.501 107.187 640.34 107.279C640.156 107.394 639.972 107.44 639.765 107.44C639.305 107.417 638.891 107.118 638.73 106.681L633.533 96.7242V106.842C633.533 107.026 633.441 107.187 633.303 107.279C632.935 107.486 632.498 107.486 632.13 107.279C631.969 107.187 631.877 107.026 631.877 106.842Z" fill="#FF6C37"/>
<path d="M534.812 103.186C536.422 90.5844 527.522 79.0634 514.943 77.4537C502.365 75.844 490.798 84.7434 489.188 97.3222C487.578 109.901 496.478 121.445 509.057 123.078C521.658 124.687 533.179 115.788 534.812 103.186Z" fill="#FF6C37"/>
<path d="M520.302 92.0326L510.598 101.737L507.861 99.0004C517.404 89.4571 518.347 90.2849 520.302 92.0326Z" fill="white"/>
<path d="M510.598 101.967C510.529 101.967 510.483 101.944 510.437 101.898L507.677 99.1614C507.585 99.0695 507.585 98.9315 507.677 98.8395C517.382 89.1352 518.393 90.0551 520.44 91.8948C520.486 91.9407 520.509 91.9867 520.509 92.0557C520.509 92.1247 520.486 92.1707 520.44 92.2167L510.736 101.898C510.713 101.944 510.644 101.967 510.598 101.967ZM508.183 99.0005L510.598 101.415L519.957 92.0557C518.255 90.538 517.106 90.0781 508.183 99.0005Z" fill="#FF6C37"/>
<path d="M513.38 104.519L510.735 101.875L520.44 92.1707C523.038 94.7922 519.152 99.0464 513.38 104.519Z" fill="white"/>
<path d="M513.38 104.749C513.311 104.749 513.265 104.726 513.219 104.68L510.575 102.036C510.529 101.99 510.529 101.944 510.529 101.875C510.529 101.806 510.552 101.76 510.598 101.714L520.302 92.0097C520.394 91.9177 520.532 91.9177 520.624 92.0097C521.222 92.5616 521.544 93.3434 521.521 94.1483C521.475 96.7008 518.577 99.9433 513.564 104.68C513.495 104.726 513.426 104.749 513.38 104.749ZM511.058 101.875C512.529 103.37 513.15 103.968 513.38 104.197C517.244 100.518 520.992 96.7468 521.015 94.1483C521.038 93.5504 520.808 92.9525 520.417 92.4926L511.058 101.875Z" fill="#FF6C37"/>
<path d="M507.907 99.0694L509.862 101.024C509.908 101.07 509.908 101.116 509.862 101.162C509.839 101.185 509.839 101.185 509.816 101.185L505.769 102.059C505.562 102.082 505.378 101.944 505.332 101.737C505.309 101.622 505.355 101.507 505.424 101.438L507.769 99.0924C507.815 99.0464 507.884 99.0234 507.907 99.0694Z" fill="white"/>
<path d="M505.7 102.289C505.355 102.289 505.102 102.013 505.102 101.668C505.102 101.507 505.171 101.346 505.286 101.231L507.631 98.8855C507.769 98.7705 507.953 98.7705 508.091 98.8855L510.046 100.84C510.184 100.955 510.184 101.162 510.046 101.3C510 101.346 509.954 101.369 509.885 101.392L505.838 102.266C505.792 102.266 505.746 102.289 505.7 102.289ZM507.838 99.3224L505.585 101.576C505.539 101.622 505.516 101.691 505.562 101.76C505.585 101.829 505.654 101.852 505.723 101.829L509.517 101.001L507.838 99.3224Z" fill="#FF6C37"/>
<path d="M525.43 86.6519C523.958 85.2262 521.59 85.2721 520.164 86.7669C518.738 88.2616 518.784 90.6072 520.279 92.0329C521.498 93.2057 523.337 93.4127 524.786 92.5388L522.164 89.9173L525.43 86.6519Z" fill="white"/>
<path d="M522.854 93.2973C520.67 93.2973 518.899 91.5266 518.899 89.342C518.899 87.1574 520.67 85.3867 522.854 85.3867C523.866 85.3867 524.855 85.7776 525.591 86.4905C525.637 86.5365 525.66 86.5825 525.66 86.6515C525.66 86.7205 525.637 86.7665 525.591 86.8125L522.486 89.9169L524.924 92.3545C525.016 92.4464 525.016 92.5844 524.924 92.6764C524.901 92.6994 524.901 92.6994 524.878 92.7224C524.28 93.0903 523.567 93.2973 522.854 93.2973ZM522.854 85.8696C520.923 85.8696 519.359 87.4333 519.382 89.365C519.382 91.2967 520.946 92.8604 522.877 92.8374C523.406 92.8374 523.935 92.7224 524.418 92.4694L522.003 90.0779C521.957 90.0319 521.934 89.9859 521.934 89.9169C521.934 89.8479 521.957 89.8019 522.003 89.7559L525.085 86.6745C524.464 86.1456 523.682 85.8696 522.854 85.8696Z" fill="#FF6C37"/>
<path d="M525.499 86.7207L525.453 86.6747L522.164 89.9173L524.763 92.5157C525.016 92.3547 525.269 92.1707 525.476 91.9638C526.948 90.515 526.948 88.1695 525.499 86.7207Z" fill="white"/>
<path d="M524.786 92.7685C524.717 92.7685 524.671 92.7455 524.625 92.6995L522.003 90.0779C521.957 90.0319 521.934 89.9859 521.934 89.9169C521.934 89.8479 521.957 89.8019 522.003 89.7559L525.269 86.4907C525.361 86.3987 525.499 86.3985 525.591 86.4905L525.66 86.5366C527.201 88.0774 527.201 90.5609 525.683 92.1246C525.453 92.3546 525.2 92.5616 524.924 92.7225C524.855 92.7455 524.809 92.7685 524.786 92.7685ZM522.486 89.9169L524.809 92.2396C524.993 92.1246 525.177 91.9637 525.315 91.8257C526.626 90.5149 526.695 88.3763 525.43 86.9966L522.486 89.9169Z" fill="#FF6C37"/>
<path d="M520.693 92.4466C520.141 91.8947 519.244 91.8947 518.692 92.4466L510.023 101.116L511.472 102.565L520.647 94.5162C521.245 94.0103 521.291 93.1135 520.785 92.5156C520.739 92.4926 520.716 92.4696 520.693 92.4466Z" fill="white"/>
<path d="M511.449 102.795C511.38 102.795 511.334 102.772 511.288 102.726L509.839 101.277C509.747 101.185 509.747 101.047 509.839 100.955L518.508 92.2857C519.152 91.6418 520.187 91.6418 520.831 92.2857C521.475 92.9296 521.475 93.9644 520.831 94.6083C520.808 94.6313 520.785 94.6543 520.762 94.6773L511.587 102.726C511.564 102.772 511.518 102.795 511.449 102.795ZM510.345 101.116L511.472 102.243L520.486 94.3324C520.992 93.9184 521.038 93.1596 520.624 92.6537C520.21 92.1477 519.451 92.1018 518.945 92.5157C518.922 92.5387 518.899 92.5617 518.853 92.5847L510.345 101.116Z" fill="#FF6C37"/>
<path d="M503.377 110.981C503.285 111.027 503.239 111.119 503.262 111.211L503.653 112.867C503.745 113.097 503.607 113.373 503.354 113.442C503.17 113.511 502.963 113.442 502.848 113.304L500.319 110.797L508.574 102.542L511.426 102.588L513.357 104.52C512.898 104.91 510.115 107.601 503.377 110.981Z" fill="white"/>
<path d="M503.193 113.672C503.009 113.672 502.825 113.603 502.71 113.465L500.204 110.958C500.158 110.912 500.135 110.866 500.135 110.797C500.135 110.728 500.158 110.682 500.204 110.636L508.459 102.381C508.505 102.335 508.574 102.312 508.62 102.312L511.472 102.358C511.54 102.358 511.586 102.381 511.632 102.427L513.564 104.358C513.61 104.404 513.633 104.473 513.633 104.542C513.633 104.611 513.61 104.657 513.541 104.703L513.38 104.841C510.943 106.98 507.631 109.119 503.515 111.165L503.906 112.798C503.975 113.097 503.837 113.419 503.561 113.58C503.423 113.649 503.308 113.672 503.193 113.672ZM500.663 110.797L503.032 113.143C503.101 113.258 503.239 113.304 503.354 113.235C503.469 113.166 503.515 113.028 503.446 112.913L503.055 111.257C503.009 111.05 503.101 110.866 503.285 110.774C507.355 108.728 510.644 106.612 513.058 104.519L511.357 102.818L508.712 102.772L500.663 110.797Z" fill="#FF6C37"/>
<path d="M498.364 112.775L500.342 110.797L503.285 113.741L498.594 113.419C498.387 113.396 498.249 113.212 498.272 113.005C498.272 112.913 498.295 112.821 498.364 112.775Z" fill="white"/>
<path d="M503.285 113.948L498.571 113.626C498.226 113.603 497.996 113.304 498.019 112.959C498.042 112.821 498.088 112.683 498.203 112.591L500.181 110.613C500.273 110.521 500.411 110.521 500.503 110.613L503.446 113.557C503.515 113.626 503.538 113.718 503.492 113.81C503.446 113.902 503.377 113.948 503.285 113.948ZM500.342 111.119L498.525 112.936C498.456 112.982 498.456 113.097 498.525 113.143C498.548 113.166 498.571 113.189 498.617 113.189L502.687 113.465L500.342 111.119Z" fill="#FF6C37"/>
<path d="M507.769 103.6C507.631 103.6 507.539 103.485 507.539 103.37C507.539 103.301 507.562 103.255 507.608 103.209L509.839 100.978C509.931 100.886 510.069 100.886 510.161 100.978L511.61 102.427C511.679 102.496 511.702 102.565 511.679 102.657C511.656 102.726 511.587 102.795 511.495 102.818L507.815 103.6C507.792 103.6 507.769 103.6 507.769 103.6ZM510 101.461L508.482 102.979L510.966 102.45L510 101.461Z" fill="#FF6C37"/>
<path d="M511.426 102.588L508.896 103.14C508.712 103.186 508.528 103.071 508.482 102.887C508.459 102.772 508.482 102.657 508.574 102.565L509.977 101.162L511.426 102.588Z" fill="white"/>
<path d="M508.85 103.37C508.528 103.37 508.275 103.117 508.275 102.795C508.275 102.634 508.344 102.496 508.436 102.381L509.839 100.978C509.931 100.886 510.069 100.886 510.161 100.978L511.61 102.427C511.679 102.496 511.702 102.565 511.679 102.657C511.656 102.726 511.587 102.795 511.495 102.818L508.965 103.37C508.919 103.37 508.873 103.37 508.85 103.37ZM510 101.461L508.758 102.703C508.712 102.749 508.712 102.795 508.735 102.841C508.758 102.887 508.804 102.91 508.873 102.91L510.989 102.45L510 101.461Z" fill="#FF6C37"/>
<path d="M525.522 88.9284C525.476 88.7904 525.315 88.7214 525.177 88.7674C525.039 88.8134 524.97 88.9744 525.016 89.1124C525.016 89.1354 525.039 89.1584 525.039 89.1814C525.177 89.4573 525.131 89.8022 524.947 90.0552C524.855 90.1702 524.878 90.3311 524.97 90.4231C525.085 90.5151 525.246 90.4921 525.338 90.3771C525.683 89.9402 525.752 89.3883 525.522 88.9284Z" fill="#FF6C37"/>
</g>
<g style="mix-blend-mode:luminosity">
<path d="M763.592 104.951V97.8439C763.592 97.6584 763.468 97.5349 763.281 97.5349H760.918V94.7537H763.281C763.468 94.7537 763.592 94.6301 763.592 94.4447V89.9951H766.951V94.4447C766.951 94.6301 767.075 94.7537 767.262 94.7537H770.558V97.5349H767.262C767.075 97.5349 766.951 97.6584 766.951 97.8439V104.148C766.951 107.114 768.008 107.361 769.376 107.361C769.874 107.361 770.62 107.3 771.056 107.238V110.142C770.496 110.204 769.563 110.328 768.506 110.328C767.2 110.266 763.592 110.266 763.592 104.951ZM854.895 106.682L857.631 105.26C858.253 106.682 859.435 107.609 860.803 107.609C861.861 107.609 863.042 107.176 863.042 105.878C863.042 105.013 862.483 104.518 861.176 104.086L859.311 103.468C856.698 102.664 855.392 101.181 855.392 99.0799C855.392 96.4224 857.631 94.4447 860.679 94.4447C863.104 94.4447 865.157 95.7426 866.152 97.782L863.415 99.2652C862.793 97.9674 861.798 97.2259 860.617 97.2259C859.435 97.2259 858.626 97.8439 858.626 98.7709C858.626 99.5742 859.248 100.192 860.492 100.563L862.358 101.181C865.095 102.046 866.401 103.53 866.401 105.569C866.401 108.783 863.602 110.451 860.803 110.451C858.004 110.39 855.765 108.968 854.895 106.682ZM844.57 103.9C844.508 103.962 844.446 104.024 844.446 104.086V110.019H841.025V88.0791H844.446V100.069C844.446 100.192 844.508 100.316 844.632 100.316C844.757 100.378 844.881 100.316 844.944 100.254L850.479 94.6919H854.646L848.178 101.181C848.053 101.305 848.053 101.428 848.178 101.552L855.206 110.019H851.039L845.628 103.344C845.565 103.282 845.503 103.221 845.441 103.221C845.379 103.221 845.317 103.221 845.254 103.282L844.57 103.9ZM839.346 96.7932L837.169 98.8327C835.925 97.9057 834.681 97.473 833.313 97.473C830.452 97.473 828.337 99.5742 828.337 102.417C828.337 105.26 830.452 107.361 833.313 107.361C834.557 107.361 835.863 106.929 837.231 106.002L839.159 108.041C836.361 110.081 834.868 110.451 832.94 110.451C830.639 110.451 828.586 109.648 827.093 108.165C825.663 106.743 824.854 104.642 824.854 102.417C824.854 97.782 828.275 94.3829 833.002 94.3829C834.557 94.3829 836.858 94.6301 839.346 96.7932ZM823.3 90.1804C823.3 91.2929 822.367 92.2199 821.247 92.2199C820.128 92.2199 819.195 91.2929 819.195 90.1804C819.195 89.0679 820.128 88.1409 821.247 88.1409C822.367 88.1409 823.3 89.0679 823.3 90.1804ZM822.989 110.019H819.568V94.7537H822.989V110.019ZM812.105 103.344V110.081H808.684V94.8156H812.042V96.6696C812.042 96.7932 812.105 96.9169 812.229 96.9786C812.353 97.0404 812.478 96.9786 812.54 96.855C813.411 95.4336 815.028 94.5066 816.769 94.5066C817.018 94.5066 817.205 94.5066 817.329 94.5684V98.0292C817.142 97.9674 816.831 97.9674 816.52 97.9674C813.784 97.9057 812.105 100.007 812.105 103.344ZM793.757 102.417C793.757 99.636 795.872 97.473 798.608 97.473C801.345 97.473 803.459 99.636 803.459 102.417C803.459 105.198 801.345 107.361 798.608 107.361C795.872 107.361 793.757 105.198 793.757 102.417ZM794.068 108.227C794.13 108.227 794.13 108.227 794.192 108.227C794.254 108.227 794.379 108.288 794.441 108.35C795.623 109.71 797.364 110.451 799.355 110.451C803.584 110.451 806.818 106.929 806.818 102.417C806.818 100.192 806.072 98.2147 804.641 96.6696C803.273 95.1864 801.345 94.3829 799.292 94.3829C797.364 94.3829 795.561 95.1864 794.379 96.6077C794.317 96.6696 794.192 96.7314 794.068 96.6696C793.943 96.6077 793.881 96.5461 793.881 96.4224V88.1409H790.461V110.081H793.881V108.536C793.881 108.35 793.943 108.288 794.068 108.227ZM779.887 107.361C777.213 107.361 775.036 105.198 775.036 102.417C775.036 99.636 777.151 97.473 779.887 97.473C782.624 97.473 784.739 99.636 784.739 102.417C784.739 105.198 782.562 107.361 779.887 107.361ZM787.911 110.019V94.7537H784.552V96.2987C784.552 96.4224 784.49 96.546 784.366 96.546C784.241 96.6077 784.117 96.546 784.054 96.4842C782.935 95.1246 781.194 94.3829 779.141 94.3829C774.912 94.3829 771.678 97.9057 771.678 102.417C771.678 106.929 774.974 110.451 779.141 110.451C781.069 110.451 782.873 109.648 784.054 108.227C784.117 108.103 784.241 108.103 784.366 108.165C784.49 108.227 784.552 108.288 784.552 108.412V110.081H787.911V110.019ZM751.091 107.361C748.417 107.361 746.24 105.198 746.24 102.417C746.24 99.636 748.355 97.473 751.091 97.473C753.765 97.473 755.942 99.636 755.942 102.417C755.942 105.198 753.765 107.361 751.091 107.361ZM759.114 110.019V94.7537H755.756V96.2987C755.756 96.4224 755.694 96.546 755.569 96.546C755.445 96.6077 755.32 96.546 755.258 96.4842C754.139 95.1246 752.397 94.3829 750.345 94.3829C746.115 94.3829 742.881 97.9057 742.881 102.417C742.881 106.929 746.178 110.451 750.345 110.451C752.273 110.451 754.077 109.648 755.258 108.227C755.32 108.103 755.445 108.103 755.569 108.165C755.694 108.227 755.756 108.288 755.756 108.412V110.081H759.114V110.019ZM732.93 107.361C730.194 107.361 728.079 105.198 728.079 102.417C728.079 99.636 730.194 97.473 732.93 97.473C735.605 97.473 737.781 99.636 737.781 102.417C737.781 105.198 735.605 107.361 732.93 107.361ZM740.953 110.019V88.1409H737.533V96.3606C737.533 96.4842 737.47 96.6077 737.346 96.6077C737.222 96.6696 737.097 96.6077 737.035 96.546C735.853 95.1864 734.112 94.4447 732.122 94.4447C727.892 94.4447 724.658 97.9674 724.658 102.479C724.658 104.704 725.405 106.682 726.835 108.227C728.203 109.71 730.131 110.513 732.184 110.513C734.112 110.513 735.916 109.71 737.097 108.288C737.159 108.227 737.284 108.165 737.408 108.227C737.533 108.288 737.595 108.35 737.595 108.474V110.081H740.953V110.019Z" fill="#707070"/>
<path d="M715.999 96.7622L703.228 104.006L689.643 96.288L689 96.6328V102.238L703.228 110.344L715.999 103.1V106.075L703.228 113.319L689.643 105.601L689 105.946V106.894L703.228 115L717.499 106.894V101.289L716.856 100.944L703.228 108.662L690.5 101.419V98.4868L703.228 105.687L717.499 97.5814V92.0626L716.771 91.6746L703.228 99.3491L691.186 92.4937L703.228 85.6815L713.171 91.2865L714.071 90.8122V90.1224L703.228 84L689 92.0626V92.9249L703.228 101.031L715.999 93.7872V96.7622Z" fill="#FF3621"/>
</g>
<g style="mix-blend-mode:luminosity" clip-path="url(#clip1_21428_8642)">
<path d="M982.547 90.05C982.547 91.4915 981.386 92.6527 979.944 92.6527C978.503 92.6527 977.342 91.4915 977.342 90.05C977.342 88.6086 978.463 87.4474 979.944 87.4474C981.426 87.4875 982.547 88.6486 982.547 90.05ZM971.816 95.2953C971.816 95.5355 971.816 95.9359 971.816 95.9359C971.816 95.9359 970.575 94.3343 967.932 94.3343C963.568 94.3343 960.165 97.6577 960.165 102.262C960.165 106.827 963.528 110.19 967.932 110.19C970.615 110.19 971.816 108.549 971.816 108.549V109.229C971.816 109.55 972.056 109.79 972.377 109.79H975.62V94.7347C975.62 94.7347 972.657 94.7347 972.377 94.7347C972.056 94.7347 971.816 95.015 971.816 95.2953ZM971.816 104.945C971.216 105.826 970.014 106.587 968.573 106.587C966.01 106.587 964.048 104.985 964.048 102.262C964.048 99.5395 966.01 97.9379 968.573 97.9379C969.974 97.9379 971.256 98.7387 971.816 99.5796V104.945ZM978.022 94.7347H981.866V109.79H978.022V94.7347ZM1035.44 94.3343C1032.8 94.3343 1031.56 95.9359 1031.56 95.9359V87.4875H1027.71V109.79C1027.71 109.79 1030.68 109.79 1030.96 109.79C1031.28 109.79 1031.52 109.51 1031.52 109.229V108.549C1031.52 108.549 1032.76 110.19 1035.4 110.19C1039.76 110.19 1043.17 106.827 1043.17 102.262C1043.17 97.6977 1039.76 94.3343 1035.44 94.3343ZM1034.8 106.547C1033.32 106.547 1032.16 105.786 1031.56 104.905V99.5395C1032.16 98.7387 1033.44 97.8979 1034.8 97.8979C1037.36 97.8979 1039.32 99.4995 1039.32 102.222C1039.32 104.945 1037.36 106.547 1034.8 106.547ZM1025.71 100.861V109.83H1021.87V101.301C1021.87 98.8188 1021.07 97.8178 1018.9 97.8178C1017.74 97.8178 1016.54 98.4184 1015.78 99.2993V109.79H1011.94V94.7347H1014.98C1015.3 94.7347 1015.54 95.015 1015.54 95.2953V95.9359C1016.66 94.7748 1018.14 94.3343 1019.62 94.3343C1021.31 94.3343 1022.71 94.8148 1023.83 95.7758C1025.19 96.8969 1025.71 98.3383 1025.71 100.861ZM1002.61 94.3343C999.964 94.3343 998.723 95.9359 998.723 95.9359V87.4875H994.879V109.79C994.879 109.79 997.842 109.79 998.123 109.79C998.443 109.79 998.683 109.51 998.683 109.229V108.549C998.683 108.549 999.924 110.19 1002.57 110.19C1006.93 110.19 1010.33 106.827 1010.33 102.262C1010.37 97.6977 1006.97 94.3343 1002.61 94.3343ZM1001.97 106.547C1000.48 106.547 999.324 105.786 998.723 104.905V99.5395C999.324 98.7387 1000.61 97.8979 1001.97 97.8979C1004.53 97.8979 1006.49 99.4995 1006.49 102.222C1006.49 104.945 1004.53 106.547 1001.97 106.547ZM991.556 94.3343C992.717 94.3343 993.318 94.5345 993.318 94.5345V98.0981C993.318 98.0981 990.115 97.017 988.113 99.2993V109.83H984.269V94.7347C984.269 94.7347 987.232 94.7347 987.512 94.7347C987.832 94.7347 988.072 95.015 988.072 95.2953V95.9359C988.793 95.0951 990.355 94.3343 991.556 94.3343ZM951.636 108.428C951.436 107.948 951.236 107.427 951.035 106.987C950.715 106.266 950.395 105.586 950.115 104.945L950.074 104.905C947.312 98.8989 944.349 92.8128 941.226 86.8068L941.106 86.5666C940.785 85.966 940.465 85.3253 940.145 84.6847C939.744 83.964 939.344 83.2032 938.703 82.4825C937.422 80.8809 935.58 80 933.618 80C931.616 80 929.814 80.8809 928.493 82.4024C927.892 83.1231 927.452 83.8839 927.051 84.6046C926.731 85.2452 926.411 85.8859 926.091 86.4865L925.97 86.7267C922.887 92.7327 919.884 98.8188 917.122 104.825L917.082 104.905C916.801 105.546 916.481 106.226 916.161 106.947C915.96 107.387 915.76 107.868 915.56 108.388C915.039 109.87 914.879 111.271 915.08 112.713C915.52 115.716 917.522 118.238 920.285 119.359C921.326 119.8 922.407 120 923.528 120C923.848 120 924.249 119.96 924.569 119.92C925.89 119.76 927.252 119.319 928.573 118.559C930.215 117.638 931.776 116.316 933.538 114.394C935.3 116.316 936.901 117.638 938.503 118.559C939.824 119.319 941.186 119.76 942.507 119.92C942.827 119.96 943.228 120 943.548 120C944.669 120 945.79 119.8 946.791 119.359C949.594 118.238 951.556 115.676 951.996 112.713C952.317 111.311 952.157 109.91 951.636 108.428ZM933.578 110.511C931.416 107.788 930.014 105.225 929.534 103.063C929.334 102.142 929.294 101.341 929.414 100.621C929.494 99.98 929.734 99.4194 930.054 98.9389C930.815 97.8579 932.097 97.1772 933.578 97.1772C935.059 97.1772 936.381 97.8178 937.102 98.9389C937.422 99.4194 937.662 99.98 937.742 100.621C937.862 101.341 937.822 102.182 937.622 103.063C937.142 105.185 935.74 107.748 933.578 110.511ZM949.554 112.392C949.274 114.474 947.872 116.276 945.91 117.077C944.949 117.477 943.908 117.598 942.867 117.477C941.866 117.357 940.865 117.037 939.824 116.436C938.383 115.636 936.941 114.394 935.26 112.553C937.902 109.309 939.504 106.346 940.105 103.704C940.385 102.462 940.425 101.341 940.305 100.3C940.145 99.2993 939.784 98.3784 939.224 97.5776C937.982 95.7758 935.9 94.7347 933.578 94.7347C931.256 94.7347 929.174 95.8158 927.932 97.5776C927.372 98.3784 927.011 99.2993 926.851 100.3C926.691 101.341 926.731 102.503 927.051 103.704C927.652 106.346 929.294 109.349 931.896 112.593C930.255 114.434 928.773 115.676 927.332 116.476C926.291 117.077 925.29 117.397 924.289 117.518C923.208 117.638 922.167 117.477 921.246 117.117C919.284 116.316 917.882 114.515 917.602 112.432C917.482 111.431 917.562 110.43 917.962 109.309C918.083 108.909 918.283 108.509 918.483 108.028C918.763 107.387 919.084 106.707 919.404 106.026L919.444 105.946C922.207 99.98 925.17 93.8939 928.253 87.968L928.373 87.7277C928.693 87.1271 929.013 86.4865 929.334 85.8859C929.654 85.2452 930.014 84.6446 930.455 84.1241C931.296 83.1632 932.417 82.6426 933.658 82.6426C934.899 82.6426 936.02 83.1632 936.861 84.1241C937.302 84.6446 937.662 85.2452 937.982 85.8859C938.303 86.4865 938.623 87.1271 938.943 87.7277L939.063 87.968C942.107 93.9339 945.069 100.02 947.832 105.986V106.026C948.153 106.667 948.433 107.387 948.753 108.028C948.953 108.509 949.154 108.909 949.274 109.309C949.594 110.35 949.714 111.351 949.554 112.392Z" fill="#FF5A5F"/>
</g>
<g style="mix-blend-mode:luminosity">
<path d="M1136.05 90.0126H1143.67C1148.53 90.0126 1152.55 92.8242 1152.55 99.2437V100.593C1152.55 107.061 1148.79 109.97 1143.82 109.97H1136.05V90.0126ZM1140.31 93.6368V106.33H1143.58C1146.34 106.33 1148.19 104.526 1148.19 100.511V99.455C1148.19 95.4407 1146.24 93.6368 1143.43 93.6368H1140.31ZM1154.81 93.8318H1158.22L1158.77 97.586C1159.42 95.0344 1161.08 93.6693 1164.09 93.6693H1165.14V97.976H1163.39C1159.92 97.976 1159.08 99.1787 1159.08 102.592V110.019H1154.87V93.8318H1154.81ZM1165.99 102.25V101.795C1165.99 96.3834 1169.45 93.4255 1174.16 93.4255C1178.97 93.4255 1182.34 96.3834 1182.34 101.795V102.25C1182.34 107.565 1179.07 110.425 1174.16 110.425C1168.94 110.376 1165.99 107.581 1165.99 102.25ZM1178.03 102.202V101.795C1178.03 98.7886 1176.52 96.9847 1174.11 96.9847C1171.76 96.9847 1170.2 98.6424 1170.2 101.795V102.202C1170.2 105.111 1171.71 106.768 1174.11 106.768C1176.52 106.72 1178.03 105.111 1178.03 102.202ZM1184.55 93.8318H1188.06L1188.46 96.8872C1189.31 94.8394 1191.11 93.4255 1193.78 93.4255C1197.89 93.4255 1200.6 96.3834 1200.6 101.86V102.315C1200.6 107.63 1197.6 110.441 1193.78 110.441C1191.23 110.441 1189.47 109.287 1188.61 107.435V115.609H1184.5L1184.55 93.8318ZM1196.33 102.202V101.844C1196.33 98.6261 1194.67 97.0334 1192.46 97.0334C1190.1 97.0334 1188.54 98.8374 1188.54 101.844V102.153C1188.54 105.013 1190.06 106.817 1192.41 106.817C1194.83 106.768 1196.33 105.224 1196.33 102.202ZM1206.83 107.028L1206.47 109.986H1202.86V88.4199H1206.97V96.6921C1207.88 94.5794 1209.69 93.4255 1212.24 93.4255C1216.11 93.4743 1218.97 96.1396 1218.97 101.503V102.007C1218.97 107.37 1216.25 110.441 1212.14 110.441C1209.43 110.376 1207.67 109.125 1206.83 107.028ZM1214.64 102.007V101.6C1214.64 98.6424 1213.04 96.9847 1210.78 96.9847C1208.47 96.9847 1206.86 98.8374 1206.86 101.649V102.007C1206.86 105.013 1208.42 106.768 1210.73 106.768C1213.2 106.768 1214.64 105.224 1214.64 102.007ZM1220.77 102.25V101.795C1220.77 96.3834 1224.23 93.4255 1228.95 93.4255C1233.76 93.4255 1237.12 96.3834 1237.12 101.795V102.25C1237.12 107.565 1233.81 110.425 1228.95 110.425C1223.73 110.376 1220.77 107.581 1220.77 102.25ZM1232.85 102.202V101.795C1232.85 98.7886 1231.34 96.9847 1228.93 96.9847C1226.57 96.9847 1225.01 98.6424 1225.01 101.795V102.202C1225.01 105.111 1226.53 106.768 1228.93 106.768C1231.35 106.72 1232.85 105.111 1232.85 102.202ZM1242.63 101.6L1236.96 93.8318H1241.82L1245.08 98.6911L1248.4 93.8318H1253.21L1247.46 101.551L1253.52 109.986H1248.76L1245.05 104.623L1241.44 109.986H1236.47L1242.63 101.6Z" fill="#707070"/>
<path d="M1109.85 90.0132L1100.43 96.0264L1109.85 102.04L1100.43 108.053L1091 102.007L1100.43 95.9939L1091 90.0132L1100.43 84L1109.85 90.0132ZM1100.38 109.987L1109.8 103.974L1119.23 109.987L1109.8 116L1100.38 109.987ZM1109.85 102.007L1119.28 95.9939L1109.85 90.0132L1119.23 84L1128.66 90.0132L1119.23 96.0264L1128.66 102.04L1119.23 108.053L1109.85 102.007Z" fill="#0061FF"/>
</g>
<g style="mix-blend-mode:luminosity">
<path d="M1355.21 88.7715H1347.34C1346.8 88.7715 1346.34 89.163 1346.26 89.695L1343.07 109.889C1343.01 110.288 1343.32 110.647 1343.72 110.647H1347.48C1348.02 110.647 1348.48 110.255 1348.56 109.722L1349.42 104.275C1349.5 103.742 1349.96 103.351 1350.5 103.351H1352.99C1358.18 103.351 1361.17 100.841 1361.96 95.866C1362.31 93.6896 1361.97 91.9796 1360.95 90.782C1359.83 89.467 1357.85 88.7715 1355.21 88.7715ZM1356.12 96.1469C1355.69 98.9728 1353.53 98.9728 1351.44 98.9728H1350.26L1351.09 93.6954C1351.14 93.3764 1351.41 93.1415 1351.74 93.1415H1352.28C1353.7 93.1415 1355.05 93.1415 1355.74 93.9522C1356.15 94.4358 1356.28 95.1543 1356.12 96.1469Z" fill="#253B80"/>
<path d="M1378.75 96.056H1374.98C1374.66 96.056 1374.38 96.2909 1374.33 96.6098L1374.17 97.6646L1373.9 97.2823C1373.09 96.0974 1371.27 95.7013 1369.45 95.7013C1365.28 95.7013 1361.72 98.8576 1361.03 103.285C1360.67 105.494 1361.18 107.606 1362.43 109.078C1363.58 110.433 1365.23 110.997 1367.18 110.997C1370.54 110.997 1372.4 108.838 1372.4 108.838L1372.24 109.886C1372.17 110.286 1372.48 110.646 1372.88 110.646H1376.28C1376.82 110.646 1377.28 110.254 1377.36 109.721L1379.4 96.8137C1379.46 96.4164 1379.16 96.056 1378.75 96.056ZM1373.5 103.396C1373.13 105.55 1371.42 106.997 1369.24 106.997C1368.15 106.997 1367.27 106.645 1366.71 105.98C1366.15 105.319 1365.94 104.378 1366.12 103.33C1366.46 101.194 1368.2 99.7005 1370.34 99.7005C1371.41 99.7005 1372.28 100.056 1372.86 100.728C1373.43 101.406 1373.66 102.352 1373.5 103.396Z" fill="#253B80"/>
<path d="M1398.84 96.0559H1395.05C1394.69 96.0559 1394.35 96.2355 1394.14 96.5361L1388.92 104.235L1386.7 96.8366C1386.56 96.3737 1386.13 96.0559 1385.65 96.0559H1381.93C1381.47 96.0559 1381.16 96.4981 1381.3 96.9242L1385.48 109.174L1381.55 114.714C1381.24 115.15 1381.55 115.75 1382.09 115.75H1385.87C1386.23 115.75 1386.57 115.575 1386.77 115.28L1399.38 97.0865C1399.68 96.6512 1399.37 96.0559 1398.84 96.0559Z" fill="#253B80"/>
<path d="M1411.38 88.7717H1403.51C1402.97 88.7717 1402.51 89.1632 1402.43 89.6952L1399.24 109.889C1399.18 110.288 1399.49 110.647 1399.89 110.647H1403.93C1404.31 110.647 1404.63 110.373 1404.69 110L1405.59 104.276C1405.67 103.743 1406.13 103.351 1406.67 103.351H1409.16C1414.35 103.351 1417.34 100.841 1418.13 95.8662C1418.48 93.6898 1418.14 91.9798 1417.12 90.7823C1416 89.4672 1414.02 88.7717 1411.38 88.7717ZM1412.29 96.1472C1411.86 98.973 1409.7 98.973 1407.62 98.973H1406.43L1407.26 93.6956C1407.31 93.3766 1407.59 93.1417 1407.91 93.1417H1408.45C1409.88 93.1417 1411.22 93.1417 1411.91 93.9524C1412.33 94.436 1412.45 95.1546 1412.29 96.1472Z" fill="#179BD7"/>
<path d="M1434.92 96.0562H1431.15C1430.83 96.0562 1430.56 96.2911 1430.51 96.6101L1430.34 97.6649L1430.08 97.2826C1429.26 96.0977 1427.44 95.7015 1425.62 95.7015C1421.46 95.7015 1417.9 98.8578 1417.2 103.285C1416.84 105.494 1417.35 107.606 1418.61 109.079C1419.76 110.433 1421.4 110.997 1423.36 110.997C1426.72 110.997 1428.58 108.838 1428.58 108.838L1428.41 109.886C1428.35 110.287 1428.65 110.646 1429.06 110.646H1432.45C1432.99 110.646 1433.45 110.254 1433.53 109.721L1435.57 96.8139C1435.64 96.4166 1435.33 96.0562 1434.92 96.0562ZM1429.67 103.396C1429.31 105.55 1427.59 106.997 1425.41 106.997C1424.32 106.997 1423.44 106.646 1422.88 105.98C1422.32 105.319 1422.11 104.378 1422.29 103.33C1422.63 101.194 1424.37 99.7007 1426.51 99.7007C1427.58 99.7007 1428.46 100.057 1429.03 100.728C1429.61 101.406 1429.83 102.353 1429.67 103.396Z" fill="#179BD7"/>
<path d="M1439.37 89.3255L1436.14 109.889C1436.07 110.288 1436.38 110.647 1436.78 110.647H1440.03C1440.57 110.647 1441.03 110.255 1441.12 109.722L1444.3 89.5294C1444.37 89.1309 1444.06 88.7705 1443.66 88.7705H1440.02C1439.7 88.7717 1439.42 89.0066 1439.37 89.3255Z" fill="#179BD7"/>
<path d="M1310.37 114.571L1310.97 110.746L1309.63 110.715H1303.22L1307.67 82.4878C1307.69 82.4026 1307.73 82.3231 1307.8 82.2667C1307.86 82.2103 1307.95 82.1792 1308.04 82.1792H1318.84C1322.42 82.1792 1324.9 82.9254 1326.19 84.3982C1326.8 85.0891 1327.18 85.8111 1327.37 86.6056C1327.56 87.4393 1327.57 88.4354 1327.38 89.6502L1327.36 89.7389V90.5173L1327.97 90.8605C1328.48 91.1311 1328.88 91.4408 1329.19 91.7955C1329.71 92.3862 1330.05 93.137 1330.19 94.0271C1330.34 94.9426 1330.29 96.0319 1330.05 97.2652C1329.77 98.6839 1329.32 99.9194 1328.72 100.93C1328.17 101.862 1327.46 102.635 1326.62 103.234C1325.82 103.802 1324.87 104.234 1323.79 104.511C1322.75 104.782 1321.56 104.919 1320.25 104.919H1319.41C1318.81 104.919 1318.23 105.136 1317.77 105.524C1317.31 105.92 1317 106.461 1316.91 107.053L1316.85 107.397L1315.78 114.139L1315.74 114.387C1315.72 114.465 1315.7 114.505 1315.67 114.531C1315.64 114.555 1315.6 114.571 1315.56 114.571H1310.37Z" fill="#253B80"/>
<path d="M1328.54 89.8286C1328.51 90.0347 1328.47 90.2455 1328.43 90.4619C1327 97.7752 1322.13 100.302 1315.91 100.302H1312.74C1311.98 100.302 1311.34 100.854 1311.22 101.605L1309.59 111.895L1309.13 114.812C1309.06 115.305 1309.44 115.749 1309.94 115.749H1315.56C1316.22 115.749 1316.79 115.266 1316.89 114.609L1316.95 114.324L1318.01 107.608L1318.07 107.24C1318.18 106.581 1318.74 106.097 1319.41 106.097H1320.25C1325.69 106.097 1329.96 103.886 1331.2 97.4885C1331.72 94.8158 1331.45 92.5842 1330.08 91.0147C1329.66 90.5414 1329.14 90.1487 1328.54 89.8286Z" fill="#179BD7"/>
<path d="M1327.05 89.2344C1326.83 89.1711 1326.61 89.1135 1326.38 89.0617C1326.15 89.011 1325.91 88.9661 1325.67 88.927C1324.81 88.7888 1323.88 88.7231 1322.87 88.7231H1314.41C1314.2 88.7231 1314 88.7704 1313.82 88.8556C1313.43 89.0433 1313.14 89.4129 1313.07 89.8654L1311.27 101.272L1311.22 101.605C1311.34 100.854 1311.98 100.302 1312.74 100.302H1315.91C1322.13 100.302 1327.01 97.7741 1328.43 90.4619C1328.47 90.2454 1328.51 90.0347 1328.54 89.8286C1328.18 89.6374 1327.79 89.4739 1327.37 89.3346C1327.27 89.3001 1327.16 89.2667 1327.05 89.2344Z" fill="#222D65"/>
<path d="M1313.07 89.8655C1313.14 89.413 1313.43 89.0433 1313.82 88.8568C1314 88.7716 1314.2 88.7244 1314.41 88.7244H1322.87C1323.87 88.7244 1324.81 88.79 1325.66 88.9282C1325.91 88.9673 1326.15 89.0122 1326.38 89.0629C1326.61 89.1147 1326.83 89.1723 1327.05 89.2356C1327.16 89.2679 1327.27 89.3013 1327.37 89.3347C1327.79 89.474 1328.18 89.6387 1328.54 89.8287C1328.97 87.1261 1328.54 85.2859 1327.08 83.6197C1325.47 81.7853 1322.56 81 1318.84 81H1308.04C1307.28 81 1306.63 81.5527 1306.51 82.3047L1302.01 110.822C1301.92 111.386 1302.36 111.895 1302.93 111.895H1309.6L1311.27 101.272L1313.07 89.8655Z" fill="#253B80"/>
</g>
<g style="mix-blend-mode:luminosity" clip-path="url(#clip2_21428_8642)">
<path d="M1508.26 114.066C1506.59 114.36 1504.89 114.447 1503.14 114.682L1497.78 98.9786V115.356C1496.11 115.531 1494.58 115.766 1493 116V86H1497.45L1503.55 103.022V86H1508.26V114.066ZM1517.49 96.9863C1519.31 96.9863 1522.09 96.8984 1523.76 96.8984V101.586C1521.68 101.586 1519.25 101.586 1517.49 101.674V108.647C1520.25 108.471 1523 108.236 1525.78 108.148V112.66L1512.8 113.685V86H1525.78V90.6875H1517.49V96.9863ZM1543.21 90.6876H1538.35V112.25C1536.77 112.25 1535.19 112.25 1533.66 112.309V90.6876H1528.8V86H1543.22L1543.21 90.6876ZM1550.83 96.6642H1557.25V101.352H1550.83V111.986H1546.23V86H1559.33V90.6875H1550.83V96.6642ZM1566.95 107.885C1569.61 107.943 1572.31 108.149 1574.91 108.295V112.924C1570.72 112.66 1566.54 112.397 1562.26 112.309V86H1566.95V107.885ZM1578.87 113.246C1580.36 113.334 1581.95 113.422 1583.47 113.598V86H1578.87V113.246ZM1604.01 86L1598.06 100.268L1604.01 116C1602.25 115.766 1600.49 115.443 1598.73 115.15L1595.36 106.479L1591.94 114.447C1590.24 114.154 1588.6 114.066 1586.9 113.832L1592.93 100.092L1587.48 86H1592.52L1595.6 93.8809L1598.88 86H1604.01V86Z" fill="#D81F26"/>
</g>
<defs>
<clipPath id="clip0_21428_8642">
<rect width="114" height="48" fill="white" transform="translate(181 76)"/>
</clipPath>
<clipPath id="clip1_21428_8642">
<rect width="128" height="48" fill="white" transform="translate(915 76)"/>
</clipPath>
<clipPath id="clip2_21428_8642">
<rect width="111" height="48" fill="white" transform="translate(1493 76)"/>
</clipPath>
</defs>
</svg>
