<svg width="1440" height="202" viewBox="0 0 1440 202" fill="none" xmlns="http://www.w3.org/2000/svg">
<g style="mix-blend-mode:luminosity">
<path d="M-4.24281 109.683C-2.45992 109.683 -0.562613 109.359 1.36329 108.529C1.51584 108.472 1.54444 108.405 1.54444 108.262C1.48723 107.728 1.42051 106.956 1.42051 106.365V88.4407C1.42051 88.3262 1.42051 88.269 1.2775 88.269H-1.95459C-2.07853 88.269 -2.13575 88.3262 -2.13575 88.4788V94.5521C-2.64107 94.4949 -2.99383 94.4663 -3.41334 94.4663C-8.62854 94.4663 -11.832 97.9081 -11.832 102.208C-11.832 107.194 -8.54274 109.683 -4.24281 109.683ZM-2.13576 106.365C-2.66967 106.537 -3.26079 106.603 -3.86145 106.603C-6.22593 106.603 -8.16137 105.268 -8.16137 102.027C-8.16137 99.1571 -6.16872 97.46 -3.52775 97.46C-2.99383 97.46 -2.52666 97.5172 -2.13576 97.6698V106.365Z" fill="#FA0C00"/>
<path d="M11.8553 94.4663C7.40284 94.4663 4.64746 97.8795 4.64746 102.094C4.64746 105.86 6.84032 109.683 11.7886 109.683C15.9741 109.683 18.9106 106.603 18.9106 101.998C18.9106 97.9368 16.4222 94.4663 11.8553 94.4663ZM11.6742 97.46C14.1912 97.46 15.259 99.6243 15.259 102.094C15.259 105.145 13.6859 106.661 11.8553 106.661C9.5957 106.661 8.26092 104.763 8.26092 102.027C8.26092 99.2143 9.68151 97.46 11.6742 97.46Z" fill="#FA0C00"/>
<path d="M22.2517 88.2689C22.1278 88.2689 22.042 88.3261 22.042 88.4787V108.767C22.042 108.853 22.1278 109.006 22.2517 109.034C23.6723 109.473 25.1597 109.683 26.6947 109.683C31.0899 109.683 35.3612 106.956 35.3612 101.464C35.3612 97.4885 32.6345 94.4661 28.3631 94.4661C27.3811 94.4661 26.4658 94.6187 25.665 94.8856L25.6268 88.5073C25.6268 88.2975 25.5696 88.2689 25.3599 88.2689H22.2517ZM31.7096 101.827C31.7096 105.116 29.4596 106.66 27.0284 106.66C26.5231 106.66 26.0749 106.632 25.665 106.508V97.8508C26.1322 97.6696 26.6947 97.5171 27.7339 97.5171C30.0793 97.5171 31.7096 99.0044 31.7096 101.827Z" fill="#FA0C00"/>
<path d="M47.4232 102.894C48.8724 102.894 50.0642 102.866 50.4742 102.77C50.6267 102.742 50.6839 102.685 50.7125 102.561C50.7983 102.237 50.8365 101.56 50.8365 100.73C50.8365 97.908 49.1394 94.4662 44.7537 94.4662C40.2726 94.4662 37.7842 98.1178 37.7842 102.237C37.7842 105.888 39.7101 109.683 45.1064 109.683C47.1277 109.683 48.4339 109.359 49.5589 108.825C49.6733 108.767 49.7305 108.672 49.7305 108.501V106.031C49.7305 105.888 49.6447 105.86 49.5589 105.917C48.4339 106.393 47.2135 106.632 45.8787 106.632C42.8564 106.632 41.4834 104.963 41.3976 102.894H47.4232ZM41.3976 100.339C41.636 98.8901 42.5513 97.3169 44.6011 97.3169C46.8607 97.3169 47.4518 99.2142 47.4518 100.072C47.4518 100.101 47.4518 100.225 47.4518 100.311C47.3279 100.339 46.9465 100.339 45.8215 100.339H41.3976Z" fill="#FA0C00"/>
</g>
<g style="mix-blend-mode:luminosity" clip-path="url(#clip0_36160_1997)">
<path d="M130.29 107.083C127.107 107.083 125 104.672 124.412 103.738C125.166 97.8285 127.373 95.9601 130.29 95.9601C133.174 95.9601 135.415 98.2195 135.415 101.522C135.415 104.824 133.174 107.083 130.29 107.083ZM130.29 92.332C125.099 92.332 122.193 95.6451 121.361 99.0559C120.419 97.3179 119.72 94.9934 119.176 92.8317H112V101.576C112 104.748 110.525 107.094 107.641 107.094C104.757 107.094 103.104 104.748 103.104 101.576L103.137 92.8317H99V101.576C99 104.129 99.843 106.442 101.385 108.094C102.971 109.799 105.134 110.69 107.641 110.69C112.632 110.69 116.115 106.942 116.115 101.576V95.6994C116.636 97.6329 117.879 101.348 120.252 104.607L118.034 116.979H122.238L123.702 108.213C124.179 108.604 124.689 108.952 125.232 109.267C126.641 110.136 128.249 110.625 129.913 110.679C129.913 110.679 130.168 110.69 130.302 110.69C135.448 110.69 139.541 106.79 139.541 101.522C139.541 96.2534 135.437 92.332 130.29 92.332Z" fill="#14A800"/>
<path d="M189.731 94.7014V92.8331H185.672V110.137H189.787V103.359C189.787 99.1877 190.175 96.1896 195.888 96.5807V92.6267C193.225 92.4312 191.151 92.9743 189.731 94.7014Z" fill="#14A800"/>
<path d="M161.16 92.834L158.176 104.935L154.993 92.834H149.758L146.563 104.935L143.591 92.834H139.42L143.99 110.149H148.937L152.375 97.8525L155.781 110.149H160.728L165.564 92.834H161.16Z" fill="#14A800"/>
<path d="M174.626 107.094C171.698 107.094 169.502 104.835 169.502 101.522C169.502 98.2086 171.709 95.9601 174.626 95.9601C177.51 95.9601 179.751 98.2195 179.751 101.522C179.751 104.824 177.51 107.094 174.626 107.094ZM174.626 92.332C169.446 92.332 165.387 96.2643 165.387 101.522C165.387 106.779 169.446 110.679 174.626 110.679C179.773 110.679 183.866 106.779 183.866 101.522C183.866 96.2643 179.784 92.332 174.626 92.332Z" fill="#14A800"/>
<path d="M201.79 101.631H202.744L208.49 110.147H213.137L206.527 100.708C209.732 99.4804 211.884 96.2759 211.884 92.8325H207.78C207.78 96.5692 204.774 97.9813 201.79 97.9813V86H197.664V110.147H201.779L201.79 101.631Z" fill="#14A800"/>
</g>
<g style="mix-blend-mode:luminosity">
<path fill-rule="evenodd" clip-rule="evenodd" d="M340.707 96.5972C341.081 97.2429 341.204 97.9774 341.244 98.8032L341.297 99.9039V107.601L341.352 108.703C341.46 110.502 342.787 111.833 344.601 111.946L345.697 112V99.9039L345.751 98.8032C345.796 97.9867 345.917 97.2382 346.297 96.588C346.685 95.921 347.24 95.3677 347.909 94.9835C348.578 94.5993 349.336 94.3978 350.107 94.3992C350.878 94.4006 351.635 94.6049 352.303 94.9915C352.97 95.3781 353.524 95.9335 353.909 96.6018C354.283 97.2475 354.4 97.9959 354.445 98.8032L354.499 99.9005V107.601L354.553 108.703C354.666 110.511 355.983 111.842 357.802 111.946L358.898 112V98.8032C358.898 96.4697 357.971 94.2317 356.322 92.5813C354.672 90.9309 352.434 90.0032 350.101 90.0023C348.852 90.001 347.617 90.2662 346.479 90.7803C345.34 91.2944 344.325 92.0454 343.5 92.9833C342.675 92.0458 341.659 91.2949 340.521 90.7807C339.383 90.2665 338.148 90.0007 336.899 90.0012C335.072 90.0012 333.377 90.5555 331.972 91.513C331.115 90.5567 329.198 90.0012 328.097 90.0012V112L329.198 111.946C331.039 111.824 332.369 110.53 332.441 108.703L332.5 107.601V99.9039L332.554 98.8032C332.6 97.9728 332.716 97.2429 333.091 96.5926C333.479 95.9261 334.034 95.3728 334.703 94.9882C335.371 94.6035 336.128 94.4009 336.899 94.4005C337.671 94.4006 338.429 94.6037 339.097 94.9893C339.766 95.3748 340.321 95.9294 340.707 96.5972ZM265.399 111.947L266.5 112H282.999L282.945 110.903C282.796 109.094 281.515 107.773 279.7 107.655L278.6 107.601H268.701L281.898 94.3993L281.844 93.3032C281.758 91.4761 280.423 90.1559 278.6 90.0554L277.499 90.0058L261 90.0012L261.054 91.1019C261.199 92.8932 262.498 94.2422 264.297 94.3462L265.399 94.4005H275.297L262.101 107.602L262.155 108.703C262.264 110.516 263.572 111.829 265.399 111.946V111.947ZM323.779 93.2212C324.8 94.2426 325.611 95.4552 326.164 96.7898C326.717 98.1244 327.001 99.5548 327.001 100.999C327.001 102.444 326.717 103.874 326.164 105.209C325.611 106.544 324.8 107.756 323.779 108.778C321.715 110.84 318.917 111.998 315.999 111.998C313.081 111.998 310.283 110.84 308.219 108.778C303.924 104.482 303.924 97.5166 308.219 93.2212C309.24 92.2002 310.451 91.3902 311.785 90.8375C313.119 90.2848 314.548 90.0002 315.992 90C317.438 89.999 318.87 90.2831 320.206 90.836C321.542 91.3889 322.756 92.1999 323.779 93.2224V93.2212ZM320.666 96.3362C321.903 97.5744 322.598 99.2531 322.598 101.003C322.598 102.754 321.903 104.433 320.666 105.671C319.428 106.908 317.749 107.603 315.999 107.603C314.248 107.603 312.57 106.908 311.332 105.671C310.094 104.433 309.399 102.754 309.399 101.003C309.399 99.2531 310.094 97.5744 311.332 96.3362C312.57 95.099 314.248 94.404 315.999 94.404C317.749 94.404 319.428 95.099 320.666 96.3362ZM292.906 90C294.35 90.0004 295.78 90.2851 297.113 90.8381C298.447 91.391 299.659 92.2012 300.679 93.2224C304.976 97.5166 304.976 104.483 300.679 108.778C298.615 110.84 295.817 111.998 292.899 111.998C289.982 111.998 287.183 110.84 285.119 108.778C280.824 104.482 280.824 97.5166 285.119 93.2212C286.14 92.2002 287.352 91.3902 288.685 90.8375C290.019 90.2848 291.449 90.0002 292.892 90H292.906ZM297.567 96.3339C298.804 97.5721 299.499 99.2511 299.499 101.002C299.499 102.752 298.804 104.431 297.567 105.67C296.328 106.907 294.65 107.602 292.899 107.602C291.149 107.602 289.47 106.907 288.232 105.67C286.995 104.431 286.3 102.753 286.3 101.002C286.3 99.252 286.995 97.5732 288.232 96.335C289.47 95.0978 291.149 94.4028 292.899 94.4028C294.65 94.4028 296.328 95.0978 297.567 96.335V96.3339Z" fill="#2D8CFF"/>
</g>
<g style="mix-blend-mode:luminosity">
<path d="M460.47 106.843V93.5279C460.47 93.3669 460.538 93.229 460.653 93.114C460.791 92.999 460.952 92.93 461.136 92.953H464.885C465.989 92.907 467.092 93.2749 467.943 93.9878C468.702 94.6777 469.093 95.7585 469.093 97.2302V97.4142C469.093 98.8859 468.702 99.9897 467.92 100.68C467.046 101.392 465.943 101.783 464.816 101.714H462.148V106.843C462.148 107.026 462.056 107.187 461.895 107.279C461.527 107.486 461.09 107.486 460.722 107.279C460.561 107.187 460.47 107.026 460.47 106.843ZM462.125 100.335H464.816C465.529 100.381 466.241 100.128 466.747 99.6218C467.253 99.0469 467.506 98.288 467.437 97.5062V97.2762C467.506 96.5174 467.253 95.7585 466.747 95.1606C466.218 94.6777 465.529 94.4247 464.816 94.4707H462.148L462.125 100.335Z" fill="#FF6C37"/>
<path d="M474.888 103.232V97.2763C474.888 95.7815 475.279 94.7007 476.038 94.0109C477.877 92.6311 480.407 92.6311 482.247 94.0109C483.028 94.7007 483.419 95.8045 483.419 97.2763V103.232C483.419 104.727 483.028 105.808 482.247 106.498C480.407 107.9 477.877 107.9 476.038 106.498C475.279 105.808 474.888 104.727 474.888 103.232ZM476.567 103.232C476.567 105.095 477.417 106.038 479.165 106.038C479.878 106.084 480.568 105.831 481.097 105.348C481.603 104.773 481.833 104.014 481.787 103.232V97.2533C481.856 96.4944 481.603 95.7356 481.097 95.1377C480.568 94.6547 479.878 94.4018 479.165 94.4478C477.44 94.4478 476.59 95.3676 476.59 97.2533L476.567 103.232Z" fill="#FF6C37"/>
<path d="M489.306 105.394C489.306 105.164 489.398 104.957 489.536 104.773C489.651 104.612 489.812 104.497 490.019 104.474C490.203 104.497 490.364 104.589 490.479 104.727C490.663 104.888 490.847 105.072 491.054 105.279C491.33 105.532 491.652 105.716 491.997 105.831C492.457 106.015 492.963 106.084 493.446 106.084C494.181 106.13 494.894 105.9 495.469 105.463C495.975 105.003 496.251 104.313 496.205 103.623C496.228 102.956 495.998 102.335 495.538 101.852C495.078 101.392 494.526 101.048 493.906 100.818C493.262 100.588 492.641 100.335 491.974 100.059C491.33 99.7828 490.778 99.3688 490.341 98.8169C489.881 98.1961 489.628 97.4372 489.674 96.6553C489.651 96.0345 489.789 95.4136 490.065 94.8387C490.295 94.3558 490.663 93.9648 491.123 93.6889C491.56 93.4359 492.02 93.252 492.503 93.114C493.009 92.999 493.515 92.93 494.021 92.93C494.825 92.93 495.607 93.045 496.366 93.2749C497.102 93.5279 497.493 93.8498 497.493 94.2408C497.493 94.4477 497.424 94.6547 497.286 94.8387C497.194 95.0226 496.987 95.1606 496.78 95.1606C496.481 95.0686 496.182 94.9536 495.883 94.8157C495.308 94.5627 494.687 94.4247 494.044 94.4477C493.377 94.4247 492.687 94.5857 492.112 94.9306C491.606 95.2756 491.33 95.8735 491.376 96.4944C491.353 97.0693 491.583 97.6212 492.02 97.9891C492.503 98.38 493.055 98.702 493.653 98.8859C494.296 99.1159 494.94 99.3688 495.584 99.6678C496.228 99.9897 496.78 100.473 497.194 101.071C497.654 101.806 497.884 102.657 497.861 103.531C497.861 104.888 497.47 105.923 496.665 106.613C495.791 107.348 494.664 107.716 493.515 107.647C492.48 107.67 491.445 107.417 490.548 106.911C489.72 106.36 489.306 105.877 489.306 105.394Z" fill="#FF6C37"/>
<path d="M502.805 93.6887C502.805 93.5047 502.851 93.3208 502.966 93.1828C503.058 93.0218 503.219 92.9528 503.403 92.9528H511.451C511.635 92.9528 511.796 93.0218 511.888 93.1828C512.003 93.3208 512.049 93.5047 512.049 93.6887C512.049 93.8727 512.003 94.0796 511.888 94.2406C511.796 94.4016 511.635 94.4706 511.451 94.4706H508.301V106.842C508.301 107.026 508.209 107.187 508.048 107.279C507.68 107.486 507.243 107.486 506.875 107.279C506.714 107.187 506.622 107.026 506.622 106.842V94.4706H503.426C503.242 94.4706 503.081 94.4016 502.989 94.2406C502.874 94.0796 502.805 93.8957 502.805 93.6887Z" fill="#FF6C37"/>
<path d="M517.706 106.843V93.8039C517.637 93.413 517.913 93.0451 518.304 92.9761C518.396 92.9531 518.488 92.9531 518.557 92.9761C519.086 92.9761 519.523 93.321 519.891 94.0339L522.995 99.9898L526.123 94.0339C526.514 93.344 526.951 92.9761 527.457 92.9761C527.847 92.9071 528.215 93.183 528.284 93.574C528.307 93.643 528.307 93.7119 528.284 93.7809V106.82C528.284 107.004 528.192 107.165 528.031 107.257C527.664 107.463 527.227 107.463 526.859 107.257C526.698 107.165 526.606 107.004 526.606 106.82V96.4485L523.616 102.059C523.524 102.335 523.271 102.542 522.972 102.542C522.696 102.519 522.443 102.335 522.351 102.059L519.362 96.3335V106.82C519.362 107.004 519.27 107.165 519.109 107.257C518.948 107.371 518.741 107.44 518.557 107.44C518.35 107.44 518.143 107.394 517.982 107.28C517.798 107.211 517.683 107.027 517.706 106.843Z" fill="#FF6C37"/>
<path d="M533.964 106.751C533.964 106.705 533.987 106.636 534.01 106.59L538.057 93.5509C538.172 93.16 538.517 92.9761 539.069 92.9761C539.621 92.9761 539.966 93.16 540.081 93.5509L544.151 106.659V106.774C544.151 106.981 544.013 107.164 543.829 107.256C543.622 107.394 543.37 107.463 543.094 107.44C542.841 107.463 542.588 107.325 542.496 107.073L541.622 104.175H536.425L535.551 107.073C535.482 107.325 535.206 107.486 534.953 107.463C534.723 107.463 534.493 107.394 534.286 107.256C534.079 107.164 533.964 106.981 533.964 106.751ZM536.839 102.795H541.277L539.069 95.3906L536.839 102.795Z" fill="#FF6C37"/>
<path d="M549.877 106.842V93.5277C549.877 93.1368 550.153 92.9528 550.705 92.9528C550.958 92.9528 551.211 93.0448 551.418 93.2058C551.648 93.4358 551.855 93.7117 551.97 94.0107L556.914 103.669V93.5277C556.914 93.3438 557.006 93.1828 557.167 93.1138C557.535 92.9069 557.972 92.9069 558.34 93.1138C558.501 93.2058 558.593 93.3668 558.593 93.5277V106.842C558.593 107.026 558.501 107.187 558.34 107.279C558.156 107.394 557.972 107.44 557.765 107.44C557.305 107.417 556.891 107.118 556.73 106.681L551.533 96.7242V106.842C551.533 107.026 551.441 107.187 551.303 107.279C550.935 107.486 550.498 107.486 550.13 107.279C549.969 107.187 549.877 107.026 549.877 106.842Z" fill="#FF6C37"/>
<path d="M452.812 103.186C454.422 90.5844 445.522 79.0634 432.943 77.4537C420.365 75.844 408.798 84.7434 407.188 97.3222C405.578 109.901 414.478 121.445 427.057 123.078C439.658 124.687 451.179 115.788 452.812 103.186Z" fill="#FF6C37"/>
<path d="M438.302 92.0326L428.598 101.737L425.861 99.0004C435.404 89.4571 436.347 90.2849 438.302 92.0326Z" fill="white"/>
<path d="M428.598 101.967C428.529 101.967 428.483 101.944 428.437 101.898L425.677 99.1614C425.585 99.0695 425.585 98.9315 425.677 98.8395C435.382 89.1352 436.393 90.0551 438.44 91.8948C438.486 91.9407 438.509 91.9867 438.509 92.0557C438.509 92.1247 438.486 92.1707 438.44 92.2167L428.736 101.898C428.713 101.944 428.644 101.967 428.598 101.967ZM426.183 99.0005L428.598 101.415L437.957 92.0557C436.255 90.538 435.106 90.0781 426.183 99.0005Z" fill="#FF6C37"/>
<path d="M431.38 104.519L428.735 101.875L438.44 92.1707C441.038 94.7922 437.152 99.0464 431.38 104.519Z" fill="white"/>
<path d="M431.38 104.749C431.311 104.749 431.265 104.726 431.219 104.68L428.575 102.036C428.529 101.99 428.529 101.944 428.529 101.875C428.529 101.806 428.552 101.76 428.598 101.714L438.302 92.0097C438.394 91.9177 438.532 91.9177 438.624 92.0097C439.222 92.5616 439.544 93.3434 439.521 94.1483C439.475 96.7008 436.577 99.9433 431.564 104.68C431.495 104.726 431.426 104.749 431.38 104.749ZM429.058 101.875C430.529 103.37 431.15 103.968 431.38 104.197C435.244 100.518 438.992 96.7468 439.015 94.1483C439.038 93.5504 438.808 92.9525 438.417 92.4926L429.058 101.875Z" fill="#FF6C37"/>
<path d="M425.907 99.0694L427.862 101.024C427.908 101.07 427.908 101.116 427.862 101.162C427.839 101.185 427.839 101.185 427.816 101.185L423.769 102.059C423.562 102.082 423.378 101.944 423.332 101.737C423.309 101.622 423.355 101.507 423.424 101.438L425.769 99.0924C425.815 99.0464 425.884 99.0234 425.907 99.0694Z" fill="white"/>
<path d="M423.7 102.289C423.355 102.289 423.102 102.013 423.102 101.668C423.102 101.507 423.171 101.346 423.286 101.231L425.631 98.8855C425.769 98.7705 425.953 98.7705 426.091 98.8855L428.046 100.84C428.184 100.955 428.184 101.162 428.046 101.3C428 101.346 427.954 101.369 427.885 101.392L423.838 102.266C423.792 102.266 423.746 102.289 423.7 102.289ZM425.838 99.3224L423.585 101.576C423.539 101.622 423.516 101.691 423.562 101.76C423.585 101.829 423.654 101.852 423.723 101.829L427.517 101.001L425.838 99.3224Z" fill="#FF6C37"/>
<path d="M443.43 86.6519C441.958 85.2262 439.59 85.2721 438.164 86.7669C436.738 88.2616 436.784 90.6072 438.279 92.0329C439.498 93.2057 441.337 93.4127 442.786 92.5388L440.164 89.9173L443.43 86.6519Z" fill="white"/>
<path d="M440.854 93.2973C438.67 93.2973 436.899 91.5266 436.899 89.342C436.899 87.1574 438.67 85.3867 440.854 85.3867C441.866 85.3867 442.855 85.7776 443.591 86.4905C443.637 86.5365 443.66 86.5825 443.66 86.6515C443.66 86.7205 443.637 86.7665 443.591 86.8125L440.486 89.9169L442.924 92.3545C443.016 92.4464 443.016 92.5844 442.924 92.6764C442.901 92.6994 442.901 92.6994 442.878 92.7224C442.28 93.0903 441.567 93.2973 440.854 93.2973ZM440.854 85.8696C438.923 85.8696 437.359 87.4333 437.382 89.365C437.382 91.2967 438.946 92.8604 440.877 92.8374C441.406 92.8374 441.935 92.7224 442.418 92.4694L440.003 90.0779C439.957 90.0319 439.934 89.9859 439.934 89.9169C439.934 89.8479 439.957 89.8019 440.003 89.7559L443.085 86.6745C442.464 86.1456 441.682 85.8696 440.854 85.8696Z" fill="#FF6C37"/>
<path d="M443.499 86.7207L443.453 86.6747L440.164 89.9173L442.763 92.5157C443.016 92.3547 443.269 92.1707 443.476 91.9638C444.948 90.515 444.948 88.1695 443.499 86.7207Z" fill="white"/>
<path d="M442.786 92.7685C442.717 92.7685 442.671 92.7455 442.625 92.6995L440.003 90.0779C439.957 90.0319 439.934 89.9859 439.934 89.9169C439.934 89.8479 439.957 89.8019 440.003 89.7559L443.269 86.4907C443.361 86.3987 443.499 86.3985 443.591 86.4905L443.66 86.5366C445.201 88.0774 445.201 90.5609 443.683 92.1246C443.453 92.3546 443.2 92.5616 442.924 92.7225C442.855 92.7455 442.809 92.7685 442.786 92.7685ZM440.486 89.9169L442.809 92.2396C442.993 92.1246 443.177 91.9637 443.315 91.8257C444.626 90.5149 444.695 88.3763 443.43 86.9966L440.486 89.9169Z" fill="#FF6C37"/>
<path d="M438.693 92.4466C438.141 91.8947 437.244 91.8947 436.692 92.4466L428.023 101.116L429.472 102.565L438.647 94.5162C439.245 94.0103 439.291 93.1135 438.785 92.5156C438.739 92.4926 438.716 92.4696 438.693 92.4466Z" fill="white"/>
<path d="M429.449 102.795C429.38 102.795 429.334 102.772 429.288 102.726L427.839 101.277C427.747 101.185 427.747 101.047 427.839 100.955L436.508 92.2857C437.152 91.6418 438.187 91.6418 438.831 92.2857C439.475 92.9296 439.475 93.9644 438.831 94.6083C438.808 94.6313 438.785 94.6543 438.762 94.6773L429.587 102.726C429.564 102.772 429.518 102.795 429.449 102.795ZM428.345 101.116L429.472 102.243L438.486 94.3324C438.992 93.9184 439.038 93.1596 438.624 92.6537C438.21 92.1477 437.451 92.1018 436.945 92.5157C436.922 92.5387 436.899 92.5617 436.853 92.5847L428.345 101.116Z" fill="#FF6C37"/>
<path d="M421.377 110.981C421.285 111.027 421.239 111.119 421.262 111.211L421.653 112.867C421.745 113.097 421.607 113.373 421.354 113.442C421.17 113.511 420.963 113.442 420.848 113.304L418.319 110.797L426.574 102.542L429.426 102.588L431.357 104.52C430.898 104.91 428.115 107.601 421.377 110.981Z" fill="white"/>
<path d="M421.193 113.672C421.009 113.672 420.825 113.603 420.71 113.465L418.204 110.958C418.158 110.912 418.135 110.866 418.135 110.797C418.135 110.728 418.158 110.682 418.204 110.636L426.459 102.381C426.505 102.335 426.574 102.312 426.62 102.312L429.472 102.358C429.54 102.358 429.586 102.381 429.632 102.427L431.564 104.358C431.61 104.404 431.633 104.473 431.633 104.542C431.633 104.611 431.61 104.657 431.541 104.703L431.38 104.841C428.943 106.98 425.631 109.119 421.515 111.165L421.906 112.798C421.975 113.097 421.837 113.419 421.561 113.58C421.423 113.649 421.308 113.672 421.193 113.672ZM418.663 110.797L421.032 113.143C421.101 113.258 421.239 113.304 421.354 113.235C421.469 113.166 421.515 113.028 421.446 112.913L421.055 111.257C421.009 111.05 421.101 110.866 421.285 110.774C425.355 108.728 428.644 106.612 431.058 104.519L429.357 102.818L426.712 102.772L418.663 110.797Z" fill="#FF6C37"/>
<path d="M416.364 112.775L418.342 110.797L421.285 113.741L416.594 113.419C416.387 113.396 416.249 113.212 416.272 113.005C416.272 112.913 416.295 112.821 416.364 112.775Z" fill="white"/>
<path d="M421.285 113.948L416.571 113.626C416.226 113.603 415.996 113.304 416.019 112.959C416.042 112.821 416.088 112.683 416.203 112.591L418.181 110.613C418.273 110.521 418.411 110.521 418.503 110.613L421.446 113.557C421.515 113.626 421.538 113.718 421.492 113.81C421.446 113.902 421.377 113.948 421.285 113.948ZM418.342 111.119L416.525 112.936C416.456 112.982 416.456 113.097 416.525 113.143C416.548 113.166 416.571 113.189 416.617 113.189L420.687 113.465L418.342 111.119Z" fill="#FF6C37"/>
<path d="M425.769 103.6C425.631 103.6 425.539 103.485 425.539 103.37C425.539 103.301 425.562 103.255 425.608 103.209L427.839 100.978C427.931 100.886 428.069 100.886 428.161 100.978L429.61 102.427C429.679 102.496 429.702 102.565 429.679 102.657C429.656 102.726 429.587 102.795 429.495 102.818L425.815 103.6C425.792 103.6 425.769 103.6 425.769 103.6ZM428 101.461L426.482 102.979L428.966 102.45L428 101.461Z" fill="#FF6C37"/>
<path d="M429.426 102.588L426.896 103.14C426.712 103.186 426.528 103.071 426.482 102.887C426.459 102.772 426.482 102.657 426.574 102.565L427.977 101.162L429.426 102.588Z" fill="white"/>
<path d="M426.85 103.37C426.528 103.37 426.275 103.117 426.275 102.795C426.275 102.634 426.344 102.496 426.436 102.381L427.839 100.978C427.931 100.886 428.069 100.886 428.161 100.978L429.61 102.427C429.679 102.496 429.702 102.565 429.679 102.657C429.656 102.726 429.587 102.795 429.495 102.818L426.965 103.37C426.919 103.37 426.873 103.37 426.85 103.37ZM428 101.461L426.758 102.703C426.712 102.749 426.712 102.795 426.735 102.841C426.758 102.887 426.804 102.91 426.873 102.91L428.989 102.45L428 101.461Z" fill="#FF6C37"/>
<path d="M443.522 88.9284C443.476 88.7904 443.315 88.7214 443.177 88.7674C443.039 88.8134 442.97 88.9744 443.016 89.1124C443.016 89.1354 443.039 89.1584 443.039 89.1814C443.177 89.4573 443.131 89.8022 442.947 90.0552C442.855 90.1702 442.878 90.3311 442.97 90.4231C443.085 90.5151 443.246 90.4921 443.338 90.3771C443.683 89.9402 443.752 89.3883 443.522 88.9284Z" fill="#FF6C37"/>
</g>
<g style="mix-blend-mode:luminosity">
<path d="M681.592 104.951V97.8439C681.592 97.6584 681.468 97.5349 681.281 97.5349H678.918V94.7537H681.281C681.468 94.7537 681.592 94.6301 681.592 94.4447V89.9951H684.951V94.4447C684.951 94.6301 685.075 94.7537 685.262 94.7537H688.558V97.5349H685.262C685.075 97.5349 684.951 97.6584 684.951 97.8439V104.148C684.951 107.114 686.008 107.361 687.376 107.361C687.874 107.361 688.62 107.3 689.056 107.238V110.142C688.496 110.204 687.563 110.328 686.506 110.328C685.2 110.266 681.592 110.266 681.592 104.951ZM772.895 106.682L775.631 105.26C776.253 106.682 777.435 107.609 778.803 107.609C779.861 107.609 781.042 107.176 781.042 105.878C781.042 105.013 780.483 104.518 779.176 104.086L777.311 103.468C774.698 102.664 773.392 101.181 773.392 99.0799C773.392 96.4224 775.631 94.4447 778.679 94.4447C781.104 94.4447 783.157 95.7426 784.152 97.782L781.415 99.2652C780.793 97.9674 779.798 97.2259 778.617 97.2259C777.435 97.2259 776.626 97.8439 776.626 98.7709C776.626 99.5742 777.248 100.192 778.492 100.563L780.358 101.181C783.095 102.046 784.401 103.53 784.401 105.569C784.401 108.783 781.602 110.451 778.803 110.451C776.004 110.39 773.765 108.968 772.895 106.682ZM762.57 103.9C762.508 103.962 762.446 104.024 762.446 104.086V110.019H759.025V88.0791H762.446V100.069C762.446 100.192 762.508 100.316 762.632 100.316C762.757 100.378 762.881 100.316 762.944 100.254L768.479 94.6919H772.646L766.178 101.181C766.053 101.305 766.053 101.428 766.178 101.552L773.206 110.019H769.039L763.628 103.344C763.565 103.282 763.503 103.221 763.441 103.221C763.379 103.221 763.317 103.221 763.254 103.282L762.57 103.9ZM757.346 96.7932L755.169 98.8327C753.925 97.9057 752.681 97.473 751.313 97.473C748.452 97.473 746.337 99.5742 746.337 102.417C746.337 105.26 748.452 107.361 751.313 107.361C752.557 107.361 753.863 106.929 755.231 106.002L757.159 108.041C754.361 110.081 752.868 110.451 750.94 110.451C748.639 110.451 746.586 109.648 745.093 108.165C743.663 106.743 742.854 104.642 742.854 102.417C742.854 97.782 746.275 94.3829 751.002 94.3829C752.557 94.3829 754.858 94.6301 757.346 96.7932ZM741.3 90.1804C741.3 91.2929 740.367 92.2199 739.247 92.2199C738.128 92.2199 737.195 91.2929 737.195 90.1804C737.195 89.0679 738.128 88.1409 739.247 88.1409C740.367 88.1409 741.3 89.0679 741.3 90.1804ZM740.989 110.019H737.568V94.7537H740.989V110.019ZM730.105 103.344V110.081H726.684V94.8156H730.042V96.6696C730.042 96.7932 730.105 96.9169 730.229 96.9786C730.353 97.0404 730.478 96.9786 730.54 96.855C731.411 95.4336 733.028 94.5066 734.769 94.5066C735.018 94.5066 735.205 94.5066 735.329 94.5684V98.0292C735.142 97.9674 734.831 97.9674 734.52 97.9674C731.784 97.9057 730.105 100.007 730.105 103.344ZM711.757 102.417C711.757 99.636 713.872 97.473 716.608 97.473C719.345 97.473 721.459 99.636 721.459 102.417C721.459 105.198 719.345 107.361 716.608 107.361C713.872 107.361 711.757 105.198 711.757 102.417ZM712.068 108.227C712.13 108.227 712.13 108.227 712.192 108.227C712.254 108.227 712.379 108.288 712.441 108.35C713.623 109.71 715.364 110.451 717.355 110.451C721.584 110.451 724.818 106.929 724.818 102.417C724.818 100.192 724.072 98.2147 722.641 96.6696C721.273 95.1864 719.345 94.3829 717.292 94.3829C715.364 94.3829 713.561 95.1864 712.379 96.6077C712.317 96.6696 712.192 96.7314 712.068 96.6696C711.943 96.6077 711.881 96.5461 711.881 96.4224V88.1409H708.461V110.081H711.881V108.536C711.881 108.35 711.943 108.288 712.068 108.227ZM697.887 107.361C695.213 107.361 693.036 105.198 693.036 102.417C693.036 99.636 695.151 97.473 697.887 97.473C700.624 97.473 702.739 99.636 702.739 102.417C702.739 105.198 700.562 107.361 697.887 107.361ZM705.911 110.019V94.7537H702.552V96.2987C702.552 96.4224 702.49 96.546 702.366 96.546C702.241 96.6077 702.117 96.546 702.054 96.4842C700.935 95.1246 699.194 94.3829 697.141 94.3829C692.912 94.3829 689.678 97.9057 689.678 102.417C689.678 106.929 692.974 110.451 697.141 110.451C699.069 110.451 700.873 109.648 702.054 108.227C702.117 108.103 702.241 108.103 702.366 108.165C702.49 108.227 702.552 108.288 702.552 108.412V110.081H705.911V110.019ZM669.091 107.361C666.417 107.361 664.24 105.198 664.24 102.417C664.24 99.636 666.355 97.473 669.091 97.473C671.765 97.473 673.942 99.636 673.942 102.417C673.942 105.198 671.765 107.361 669.091 107.361ZM677.114 110.019V94.7537H673.756V96.2987C673.756 96.4224 673.694 96.546 673.569 96.546C673.445 96.6077 673.32 96.546 673.258 96.4842C672.139 95.1246 670.397 94.3829 668.345 94.3829C664.115 94.3829 660.881 97.9057 660.881 102.417C660.881 106.929 664.178 110.451 668.345 110.451C670.273 110.451 672.077 109.648 673.258 108.227C673.32 108.103 673.445 108.103 673.569 108.165C673.694 108.227 673.756 108.288 673.756 108.412V110.081H677.114V110.019ZM650.93 107.361C648.194 107.361 646.079 105.198 646.079 102.417C646.079 99.636 648.194 97.473 650.93 97.473C653.605 97.473 655.781 99.636 655.781 102.417C655.781 105.198 653.605 107.361 650.93 107.361ZM658.953 110.019V88.1409H655.533V96.3606C655.533 96.4842 655.47 96.6077 655.346 96.6077C655.222 96.6696 655.097 96.6077 655.035 96.546C653.853 95.1864 652.112 94.4447 650.122 94.4447C645.892 94.4447 642.658 97.9674 642.658 102.479C642.658 104.704 643.405 106.682 644.835 108.227C646.203 109.71 648.131 110.513 650.184 110.513C652.112 110.513 653.916 109.71 655.097 108.288C655.159 108.227 655.284 108.165 655.408 108.227C655.533 108.288 655.595 108.35 655.595 108.474V110.081H658.953V110.019Z" fill="#707070"/>
<path d="M633.999 96.7622L621.228 104.006L607.643 96.288L607 96.6328V102.238L621.228 110.344L633.999 103.1V106.075L621.228 113.319L607.643 105.601L607 105.946V106.894L621.228 115L635.499 106.894V101.289L634.856 100.944L621.228 108.662L608.5 101.419V98.4868L621.228 105.687L635.499 97.5814V92.0626L634.771 91.6746L621.228 99.3491L609.186 92.4937L621.228 85.6815L631.171 91.2865L632.071 90.8122V90.1224L621.228 84L607 92.0626V92.9249L621.228 101.031L633.999 93.7872V96.7622Z" fill="#FF3621"/>
</g>
<g style="mix-blend-mode:luminosity" clip-path="url(#clip1_36160_1997)">
<path d="M900.547 90.05C900.547 91.4915 899.386 92.6527 897.944 92.6527C896.503 92.6527 895.342 91.4915 895.342 90.05C895.342 88.6086 896.463 87.4474 897.944 87.4474C899.426 87.4875 900.547 88.6486 900.547 90.05ZM889.816 95.2953C889.816 95.5355 889.816 95.9359 889.816 95.9359C889.816 95.9359 888.575 94.3343 885.932 94.3343C881.568 94.3343 878.165 97.6577 878.165 102.262C878.165 106.827 881.528 110.19 885.932 110.19C888.615 110.19 889.816 108.549 889.816 108.549V109.229C889.816 109.55 890.056 109.79 890.377 109.79H893.62V94.7347C893.62 94.7347 890.657 94.7347 890.377 94.7347C890.056 94.7347 889.816 95.015 889.816 95.2953ZM889.816 104.945C889.216 105.826 888.014 106.587 886.573 106.587C884.01 106.587 882.048 104.985 882.048 102.262C882.048 99.5395 884.01 97.9379 886.573 97.9379C887.974 97.9379 889.256 98.7387 889.816 99.5796V104.945ZM896.022 94.7347H899.866V109.79H896.022V94.7347ZM953.44 94.3343C950.797 94.3343 949.556 95.9359 949.556 95.9359V87.4875H945.712V109.79C945.712 109.79 948.675 109.79 948.955 109.79C949.276 109.79 949.516 109.51 949.516 109.229V108.549C949.516 108.549 950.757 110.19 953.4 110.19C957.764 110.19 961.168 106.827 961.168 102.262C961.168 97.6977 957.764 94.3343 953.44 94.3343ZM952.799 106.547C951.318 106.547 950.157 105.786 949.556 104.905V99.5395C950.157 98.7387 951.438 97.8979 952.799 97.8979C955.362 97.8979 957.324 99.4995 957.324 102.222C957.324 104.945 955.362 106.547 952.799 106.547ZM943.71 100.861V109.83H939.866V101.301C939.866 98.8188 939.065 97.8178 936.903 97.8178C935.742 97.8178 934.541 98.4184 933.78 99.2993V109.79H929.936V94.7347H932.979C933.3 94.7347 933.54 95.015 933.54 95.2953V95.9359C934.661 94.7748 936.143 94.3343 937.624 94.3343C939.306 94.3343 940.707 94.8148 941.828 95.7758C943.19 96.8969 943.71 98.3383 943.71 100.861ZM920.607 94.3343C917.964 94.3343 916.723 95.9359 916.723 95.9359V87.4875H912.879V109.79C912.879 109.79 915.842 109.79 916.123 109.79C916.443 109.79 916.683 109.51 916.683 109.229V108.549C916.683 108.549 917.924 110.19 920.567 110.19C924.931 110.19 928.335 106.827 928.335 102.262C928.375 97.6977 924.971 94.3343 920.607 94.3343ZM919.966 106.547C918.485 106.547 917.324 105.786 916.723 104.905V99.5395C917.324 98.7387 918.605 97.8979 919.966 97.8979C922.529 97.8979 924.491 99.4995 924.491 102.222C924.491 104.945 922.529 106.547 919.966 106.547ZM909.556 94.3343C910.717 94.3343 911.318 94.5345 911.318 94.5345V98.0981C911.318 98.0981 908.115 97.017 906.113 99.2993V109.83H902.269V94.7347C902.269 94.7347 905.232 94.7347 905.512 94.7347C905.832 94.7347 906.072 95.015 906.072 95.2953V95.9359C906.793 95.0951 908.355 94.3343 909.556 94.3343ZM869.636 108.428C869.436 107.948 869.236 107.427 869.035 106.987C868.715 106.266 868.395 105.586 868.115 104.945L868.074 104.905C865.312 98.8989 862.349 92.8128 859.226 86.8068L859.106 86.5666C858.785 85.966 858.465 85.3253 858.145 84.6847C857.744 83.964 857.344 83.2032 856.703 82.4825C855.422 80.8809 853.58 80 851.618 80C849.616 80 847.814 80.8809 846.493 82.4024C845.892 83.1231 845.452 83.8839 845.051 84.6046C844.731 85.2452 844.411 85.8859 844.091 86.4865L843.97 86.7267C840.887 92.7327 837.884 98.8188 835.122 104.825L835.082 104.905C834.801 105.546 834.481 106.226 834.161 106.947C833.96 107.387 833.76 107.868 833.56 108.388C833.039 109.87 832.879 111.271 833.08 112.713C833.52 115.716 835.522 118.238 838.285 119.359C839.326 119.8 840.407 120 841.528 120C841.848 120 842.249 119.96 842.569 119.92C843.89 119.76 845.252 119.319 846.573 118.559C848.215 117.638 849.776 116.316 851.538 114.394C853.3 116.316 854.901 117.638 856.503 118.559C857.824 119.319 859.186 119.76 860.507 119.92C860.827 119.96 861.228 120 861.548 120C862.669 120 863.79 119.8 864.791 119.359C867.594 118.238 869.556 115.676 869.996 112.713C870.317 111.311 870.157 109.91 869.636 108.428ZM851.578 110.511C849.416 107.788 848.014 105.225 847.534 103.063C847.334 102.142 847.294 101.341 847.414 100.621C847.494 99.98 847.734 99.4194 848.054 98.9389C848.815 97.8579 850.097 97.1772 851.578 97.1772C853.059 97.1772 854.381 97.8178 855.102 98.9389C855.422 99.4194 855.662 99.98 855.742 100.621C855.862 101.341 855.822 102.182 855.622 103.063C855.142 105.185 853.74 107.748 851.578 110.511ZM867.554 112.392C867.274 114.474 865.872 116.276 863.91 117.077C862.949 117.477 861.908 117.598 860.867 117.477C859.866 117.357 858.865 117.037 857.824 116.436C856.383 115.636 854.941 114.394 853.26 112.553C855.902 109.309 857.504 106.346 858.105 103.704C858.385 102.462 858.425 101.341 858.305 100.3C858.145 99.2993 857.784 98.3784 857.224 97.5776C855.982 95.7758 853.9 94.7347 851.578 94.7347C849.256 94.7347 847.174 95.8158 845.932 97.5776C845.372 98.3784 845.011 99.2993 844.851 100.3C844.691 101.341 844.731 102.503 845.051 103.704C845.652 106.346 847.294 109.349 849.896 112.593C848.255 114.434 846.773 115.676 845.332 116.476C844.291 117.077 843.29 117.397 842.289 117.518C841.208 117.638 840.167 117.477 839.246 117.117C837.284 116.316 835.882 114.515 835.602 112.432C835.482 111.431 835.562 110.43 835.962 109.309C836.083 108.909 836.283 108.509 836.483 108.028C836.763 107.387 837.084 106.707 837.404 106.026L837.444 105.946C840.207 99.98 843.17 93.8939 846.253 87.968L846.373 87.7277C846.693 87.1271 847.013 86.4865 847.334 85.8859C847.654 85.2452 848.014 84.6446 848.455 84.1241C849.296 83.1632 850.417 82.6426 851.658 82.6426C852.899 82.6426 854.02 83.1632 854.861 84.1241C855.302 84.6446 855.662 85.2452 855.982 85.8859C856.303 86.4865 856.623 87.1271 856.943 87.7277L857.063 87.968C860.107 93.9339 863.069 100.02 865.832 105.986V106.026C866.153 106.667 866.433 107.387 866.753 108.028C866.953 108.509 867.154 108.909 867.274 109.309C867.594 110.35 867.714 111.351 867.554 112.392Z" fill="#FF5A5F"/>
</g>
<g style="mix-blend-mode:luminosity">
<path d="M1054.05 90.0126H1061.67C1066.53 90.0126 1070.55 92.8242 1070.55 99.2437V100.593C1070.55 107.061 1066.79 109.97 1061.82 109.97H1054.05V90.0126ZM1058.31 93.6368V106.33H1061.58C1064.34 106.33 1066.19 104.526 1066.19 100.511V99.455C1066.19 95.4407 1064.24 93.6368 1061.43 93.6368H1058.31ZM1072.81 93.8318H1076.22L1076.77 97.586C1077.42 95.0344 1079.08 93.6693 1082.09 93.6693H1083.14V97.976H1081.39C1077.92 97.976 1077.08 99.1787 1077.08 102.592V110.019H1072.87V93.8318H1072.81ZM1083.99 102.25V101.795C1083.99 96.3834 1087.45 93.4255 1092.16 93.4255C1096.97 93.4255 1100.34 96.3834 1100.34 101.795V102.25C1100.34 107.565 1097.07 110.425 1092.16 110.425C1086.94 110.376 1083.99 107.581 1083.99 102.25ZM1096.03 102.202V101.795C1096.03 98.7886 1094.52 96.9847 1092.11 96.9847C1089.76 96.9847 1088.2 98.6424 1088.2 101.795V102.202C1088.2 105.111 1089.71 106.768 1092.11 106.768C1094.52 106.72 1096.03 105.111 1096.03 102.202ZM1102.55 93.8318H1106.06L1106.46 96.8872C1107.31 94.8394 1109.11 93.4255 1111.78 93.4255C1115.89 93.4255 1118.6 96.3834 1118.6 101.86V102.315C1118.6 107.63 1115.6 110.441 1111.78 110.441C1109.23 110.441 1107.47 109.287 1106.61 107.435V115.609H1102.5L1102.55 93.8318ZM1114.33 102.202V101.844C1114.33 98.6261 1112.67 97.0334 1110.46 97.0334C1108.1 97.0334 1106.54 98.8374 1106.54 101.844V102.153C1106.54 105.013 1108.06 106.817 1110.41 106.817C1112.83 106.768 1114.33 105.224 1114.33 102.202ZM1124.83 107.028L1124.47 109.986H1120.86V88.4199H1124.97V96.6921C1125.88 94.5794 1127.69 93.4255 1130.24 93.4255C1134.11 93.4743 1136.97 96.1396 1136.97 101.503V102.007C1136.97 107.37 1134.25 110.441 1130.14 110.441C1127.43 110.376 1125.67 109.125 1124.83 107.028ZM1132.64 102.007V101.6C1132.64 98.6424 1131.04 96.9847 1128.78 96.9847C1126.47 96.9847 1124.86 98.8374 1124.86 101.649V102.007C1124.86 105.013 1126.42 106.768 1128.73 106.768C1131.2 106.768 1132.64 105.224 1132.64 102.007ZM1138.77 102.25V101.795C1138.77 96.3834 1142.23 93.4255 1146.95 93.4255C1151.76 93.4255 1155.12 96.3834 1155.12 101.795V102.25C1155.12 107.565 1151.81 110.425 1146.95 110.425C1141.73 110.376 1138.77 107.581 1138.77 102.25ZM1150.85 102.202V101.795C1150.85 98.7886 1149.34 96.9847 1146.93 96.9847C1144.57 96.9847 1143.01 98.6424 1143.01 101.795V102.202C1143.01 105.111 1144.53 106.768 1146.93 106.768C1149.35 106.72 1150.85 105.111 1150.85 102.202ZM1160.63 101.6L1154.96 93.8318H1159.82L1163.08 98.6911L1166.4 93.8318H1171.21L1165.46 101.551L1171.52 109.986H1166.76L1163.05 104.623L1159.44 109.986H1154.47L1160.63 101.6Z" fill="#707070"/>
<path d="M1027.85 90.0132L1018.43 96.0264L1027.85 102.04L1018.43 108.053L1009 102.007L1018.43 95.9939L1009 90.0132L1018.43 84L1027.85 90.0132ZM1018.38 109.987L1027.8 103.974L1037.23 109.987L1027.8 116L1018.38 109.987ZM1027.85 102.007L1037.28 95.9939L1027.85 90.0132L1037.23 84L1046.66 90.0132L1037.23 96.0264L1046.66 102.04L1037.23 108.053L1027.85 102.007Z" fill="#0061FF"/>
</g>
<g style="mix-blend-mode:luminosity">
<path d="M1273.21 88.7715H1265.34C1264.8 88.7715 1264.34 89.163 1264.26 89.695L1261.07 109.889C1261.01 110.288 1261.32 110.647 1261.72 110.647H1265.48C1266.02 110.647 1266.48 110.255 1266.56 109.722L1267.42 104.275C1267.5 103.742 1267.96 103.351 1268.5 103.351H1270.99C1276.18 103.351 1279.17 100.841 1279.96 95.866C1280.31 93.6896 1279.97 91.9796 1278.95 90.782C1277.83 89.467 1275.85 88.7715 1273.21 88.7715ZM1274.12 96.1469C1273.69 98.9728 1271.53 98.9728 1269.44 98.9728H1268.26L1269.09 93.6954C1269.14 93.3764 1269.41 93.1415 1269.74 93.1415H1270.28C1271.7 93.1415 1273.05 93.1415 1273.74 93.9522C1274.15 94.4358 1274.28 95.1543 1274.12 96.1469Z" fill="#253B80"/>
<path d="M1296.75 96.056H1292.98C1292.66 96.056 1292.38 96.2909 1292.33 96.6098L1292.17 97.6646L1291.9 97.2823C1291.09 96.0974 1289.27 95.7013 1287.45 95.7013C1283.28 95.7013 1279.72 98.8576 1279.03 103.285C1278.67 105.494 1279.18 107.606 1280.43 109.078C1281.58 110.433 1283.23 110.997 1285.18 110.997C1288.54 110.997 1290.4 108.838 1290.4 108.838L1290.24 109.886C1290.17 110.286 1290.48 110.646 1290.88 110.646H1294.28C1294.82 110.646 1295.28 110.254 1295.36 109.721L1297.4 96.8137C1297.46 96.4164 1297.16 96.056 1296.75 96.056ZM1291.5 103.396C1291.13 105.55 1289.42 106.997 1287.24 106.997C1286.15 106.997 1285.27 106.645 1284.71 105.98C1284.15 105.319 1283.94 104.378 1284.12 103.33C1284.46 101.194 1286.2 99.7005 1288.34 99.7005C1289.41 99.7005 1290.28 100.056 1290.86 100.728C1291.43 101.406 1291.66 102.352 1291.5 103.396Z" fill="#253B80"/>
<path d="M1316.84 96.0559H1313.05C1312.69 96.0559 1312.35 96.2355 1312.14 96.5361L1306.92 104.235L1304.7 96.8366C1304.56 96.3737 1304.13 96.0559 1303.65 96.0559H1299.93C1299.47 96.0559 1299.16 96.4981 1299.3 96.9242L1303.48 109.174L1299.55 114.714C1299.24 115.15 1299.55 115.75 1300.09 115.75H1303.87C1304.23 115.75 1304.57 115.575 1304.77 115.28L1317.38 97.0865C1317.68 96.6512 1317.37 96.0559 1316.84 96.0559Z" fill="#253B80"/>
<path d="M1329.38 88.7717H1321.51C1320.97 88.7717 1320.51 89.1632 1320.43 89.6952L1317.24 109.889C1317.18 110.288 1317.49 110.647 1317.89 110.647H1321.93C1322.31 110.647 1322.63 110.373 1322.69 110L1323.59 104.276C1323.67 103.743 1324.13 103.351 1324.67 103.351H1327.16C1332.35 103.351 1335.34 100.841 1336.13 95.8662C1336.48 93.6898 1336.14 91.9798 1335.12 90.7823C1334 89.4672 1332.02 88.7717 1329.38 88.7717ZM1330.29 96.1472C1329.86 98.973 1327.7 98.973 1325.62 98.973H1324.43L1325.26 93.6956C1325.31 93.3766 1325.59 93.1417 1325.91 93.1417H1326.45C1327.88 93.1417 1329.22 93.1417 1329.91 93.9524C1330.33 94.436 1330.45 95.1546 1330.29 96.1472Z" fill="#179BD7"/>
<path d="M1352.92 96.0562H1349.15C1348.83 96.0562 1348.56 96.2911 1348.51 96.6101L1348.34 97.6649L1348.08 97.2826C1347.26 96.0977 1345.44 95.7015 1343.62 95.7015C1339.46 95.7015 1335.9 98.8578 1335.2 103.285C1334.84 105.494 1335.35 107.606 1336.61 109.079C1337.76 110.433 1339.4 110.997 1341.36 110.997C1344.72 110.997 1346.58 108.838 1346.58 108.838L1346.41 109.886C1346.35 110.287 1346.65 110.646 1347.06 110.646H1350.45C1350.99 110.646 1351.45 110.254 1351.53 109.721L1353.57 96.8139C1353.64 96.4166 1353.33 96.0562 1352.92 96.0562ZM1347.67 103.396C1347.31 105.55 1345.59 106.997 1343.41 106.997C1342.32 106.997 1341.44 106.646 1340.88 105.98C1340.32 105.319 1340.11 104.378 1340.29 103.33C1340.63 101.194 1342.37 99.7007 1344.51 99.7007C1345.58 99.7007 1346.46 100.057 1347.03 100.728C1347.61 101.406 1347.83 102.353 1347.67 103.396Z" fill="#179BD7"/>
<path d="M1357.37 89.3255L1354.14 109.889C1354.07 110.288 1354.38 110.647 1354.78 110.647H1358.03C1358.57 110.647 1359.03 110.255 1359.12 109.722L1362.3 89.5294C1362.37 89.1309 1362.06 88.7705 1361.66 88.7705H1358.02C1357.7 88.7717 1357.42 89.0066 1357.37 89.3255Z" fill="#179BD7"/>
<path d="M1228.37 114.571L1228.97 110.746L1227.63 110.715H1221.22L1225.67 82.4878C1225.69 82.4026 1225.73 82.3231 1225.8 82.2667C1225.86 82.2103 1225.95 82.1792 1226.04 82.1792H1236.84C1240.42 82.1792 1242.9 82.9254 1244.19 84.3982C1244.8 85.0891 1245.18 85.8111 1245.37 86.6056C1245.56 87.4393 1245.57 88.4354 1245.38 89.6502L1245.36 89.7389V90.5173L1245.97 90.8605C1246.48 91.1311 1246.88 91.4408 1247.19 91.7955C1247.71 92.3862 1248.05 93.137 1248.19 94.0271C1248.34 94.9426 1248.29 96.0319 1248.05 97.2652C1247.77 98.6839 1247.32 99.9194 1246.72 100.93C1246.17 101.862 1245.46 102.635 1244.62 103.234C1243.82 103.802 1242.87 104.234 1241.79 104.511C1240.75 104.782 1239.56 104.919 1238.25 104.919H1237.41C1236.81 104.919 1236.23 105.136 1235.77 105.524C1235.31 105.92 1235 106.461 1234.91 107.053L1234.85 107.397L1233.78 114.139L1233.74 114.387C1233.72 114.465 1233.7 114.505 1233.67 114.531C1233.64 114.555 1233.6 114.571 1233.56 114.571H1228.37Z" fill="#253B80"/>
<path d="M1246.54 89.8286C1246.51 90.0347 1246.47 90.2455 1246.43 90.4619C1245 97.7752 1240.13 100.302 1233.91 100.302H1230.74C1229.98 100.302 1229.34 100.854 1229.22 101.605L1227.59 111.895L1227.13 114.812C1227.06 115.305 1227.44 115.749 1227.94 115.749H1233.56C1234.22 115.749 1234.79 115.266 1234.89 114.609L1234.95 114.324L1236.01 107.608L1236.07 107.24C1236.18 106.581 1236.74 106.097 1237.41 106.097H1238.25C1243.69 106.097 1247.96 103.886 1249.2 97.4885C1249.72 94.8158 1249.45 92.5842 1248.08 91.0147C1247.66 90.5414 1247.14 90.1487 1246.54 89.8286Z" fill="#179BD7"/>
<path d="M1245.05 89.2344C1244.83 89.1711 1244.61 89.1135 1244.38 89.0617C1244.15 89.011 1243.91 88.9661 1243.67 88.927C1242.81 88.7888 1241.88 88.7231 1240.87 88.7231H1232.41C1232.2 88.7231 1232 88.7704 1231.82 88.8556C1231.43 89.0433 1231.14 89.4129 1231.07 89.8654L1229.27 101.272L1229.22 101.605C1229.34 100.854 1229.98 100.302 1230.74 100.302H1233.91C1240.13 100.302 1245.01 97.7741 1246.43 90.4619C1246.47 90.2454 1246.51 90.0347 1246.54 89.8286C1246.18 89.6374 1245.79 89.4739 1245.37 89.3346C1245.27 89.3001 1245.16 89.2667 1245.05 89.2344Z" fill="#222D65"/>
<path d="M1231.07 89.8655C1231.14 89.413 1231.43 89.0433 1231.82 88.8568C1232 88.7716 1232.2 88.7244 1232.41 88.7244H1240.87C1241.87 88.7244 1242.81 88.79 1243.66 88.9282C1243.91 88.9673 1244.15 89.0122 1244.38 89.0629C1244.61 89.1147 1244.83 89.1723 1245.05 89.2356C1245.16 89.2679 1245.27 89.3013 1245.37 89.3347C1245.79 89.474 1246.18 89.6387 1246.54 89.8287C1246.97 87.1261 1246.54 85.2859 1245.08 83.6197C1243.47 81.7853 1240.56 81 1236.84 81H1226.04C1225.28 81 1224.63 81.5527 1224.51 82.3047L1220.01 110.822C1219.92 111.386 1220.36 111.895 1220.93 111.895H1227.6L1229.27 101.272L1231.07 89.8655Z" fill="#253B80"/>
</g>
<g style="mix-blend-mode:luminosity" clip-path="url(#clip2_36160_1997)">
<path d="M1426.26 114.066C1424.59 114.36 1422.89 114.447 1421.14 114.682L1415.78 98.9786V115.356C1414.11 115.531 1412.58 115.766 1411 116V86H1415.45L1421.55 103.022V86H1426.26V114.066ZM1435.49 96.9863C1437.31 96.9863 1440.09 96.8984 1441.76 96.8984V101.586C1439.68 101.586 1437.25 101.586 1435.49 101.674V108.647C1438.25 108.471 1441 108.236 1443.78 108.148V112.66L1430.8 113.685V86H1443.78V90.6875H1435.49V96.9863ZM1461.21 90.6876H1456.35V112.25C1454.77 112.25 1453.19 112.25 1451.66 112.309V90.6876H1446.8V86H1461.22L1461.21 90.6876ZM1468.83 96.6642H1475.25V101.352H1468.83V111.986H1464.23V86H1477.33V90.6875H1468.83V96.6642ZM1484.95 107.885C1487.61 107.943 1490.31 108.149 1492.91 108.295V112.924C1488.72 112.66 1484.54 112.397 1480.26 112.309V86H1484.95V107.885ZM1496.87 113.246C1498.36 113.334 1499.95 113.422 1501.47 113.598V86H1496.87V113.246ZM1522.01 86L1516.06 100.268L1522.01 116C1520.25 115.766 1518.49 115.443 1516.73 115.15L1513.36 106.479L1509.94 114.447C1508.24 114.154 1506.6 114.066 1504.9 113.832L1510.93 100.092L1505.48 86H1510.52L1513.6 93.8809L1516.88 86H1522.01V86Z" fill="#D81F26"/>
</g>
<path d="M1181.35 202L1441.35 202L1440 2.00005L1180 2.00005L1181.35 202Z" fill="url(#paint0_linear_36160_1997)"/>
<path d="M255 1L-5.00002 1L-3.64792 201L256.352 201L255 1Z" fill="url(#paint1_linear_36160_1997)"/>
<defs>
<linearGradient id="paint0_linear_36160_1997" x1="1347.32" y1="73.7558" x2="1206.59" y2="72.9333" gradientUnits="userSpaceOnUse">
<stop stop-color="white"/>
<stop offset="1" stop-color="white" stop-opacity="0"/>
</linearGradient>
<linearGradient id="paint1_linear_36160_1997" x1="89.032" y1="129.244" x2="229.766" y2="130.067" gradientUnits="userSpaceOnUse">
<stop stop-color="white"/>
<stop offset="1" stop-color="white" stop-opacity="0"/>
</linearGradient>
<clipPath id="clip0_36160_1997">
<rect width="114" height="48" fill="white" transform="translate(99 76)"/>
</clipPath>
<clipPath id="clip1_36160_1997">
<rect width="128" height="48" fill="white" transform="translate(833 76)"/>
</clipPath>
<clipPath id="clip2_36160_1997">
<rect width="111" height="48" fill="white" transform="translate(1411 76)"/>
</clipPath>
</defs>
</svg>
